<svg width="31" height="30" viewBox="0 0 31 30" fill="none" xmlns="http://www.w3.org/2000/svg">
<path d="M30.2159 27.6208L17.5959 15L30.2159 2.3792C30.7607 1.83436 30.7607 0.95347 30.2159 0.40863C29.6711 -0.13621 28.7902 -0.13621 28.2454 0.40863L15.6255 13.0294L3.00551 0.40863C2.4607 -0.13621 1.57987 -0.13621 1.03507 0.40863C0.490264 0.95347 0.490264 1.83436 1.03507 2.3792L13.655 15L1.03706 27.6208C0.492252 28.1656 0.492252 29.0465 1.03706 29.5914C1.58186 30.1362 2.46269 30.1362 3.0075 29.5914L15.6275 16.9706L28.2474 29.5914C28.7922 30.1362 29.6731 30.1362 30.2179 29.5914C30.7627 29.0465 30.7627 28.1656 30.2179 27.6208H30.2159Z" fill="white"/>
</svg>
