<svg width="25" height="25" viewBox="0 0 25 25" fill="none" xmlns="http://www.w3.org/2000/svg">
<g clip-path="url(#clip0_561_5504)">
<path d="M12.5 0C5.60717 0 0 5.60717 0 12.5C0 19.3928 5.60717 25 12.5 25C19.3928 25 25 19.3928 25 12.5C25 5.60717 19.3928 0 12.5 0ZM12.5 24.2467C6.02149 24.2467 0.753315 18.976 0.753315 12.5C0.753315 6.024 6.024 0.753315 12.5 0.753315C18.976 0.753315 24.2467 6.024 24.2467 12.5C24.2467 18.976 18.976 24.2467 12.5 24.2467Z" fill="white"/>
<path d="M12.4999 11.9777C15.1376 11.9777 17.2759 9.83939 17.2759 7.20167C17.2759 4.56395 15.1376 2.42566 12.4999 2.42566C9.86217 2.42566 7.72388 4.56395 7.72388 7.20167C7.72388 9.83939 9.86217 11.9777 12.4999 11.9777Z" fill="white"/>
<path d="M15.1995 12.2062C14.4311 12.7335 13.502 13.0449 12.5001 13.0449C11.4982 13.0449 10.5691 12.736 9.80074 12.2062C6.94568 13.2935 4.91675 16.0556 4.91675 19.2924C4.91675 19.6539 4.94437 20.008 4.99208 20.3545C6.99087 22.1273 9.61743 23.2071 12.5001 23.2071C15.3828 23.2071 18.0094 22.1273 20.0082 20.3545C20.0559 20.008 20.0835 19.6514 20.0835 19.2924C20.0835 16.0556 18.0546 13.2935 15.1995 12.2062Z" fill="white"/>
</g>
<defs>
<clipPath id="clip0_561_5504">
<rect width="25" height="25" fill="white"/>
</clipPath>
</defs>
</svg>
