<svg width="406" height="120" viewBox="0 0 406 120" fill="none" xmlns="http://www.w3.org/2000/svg">
<path d="M174.5 74.2033L66.9238 104.32L68.2879 109.193L175.864 79.0759L174.5 74.2033Z" fill="#8FA4BC"/>
<path d="M169.31 87.8541L162.261 80.6284L68.1898 107.739L65.1775 116.442L169.31 87.8541Z" fill="#6A7B9B"/>
<path d="M104.141 57.3762C106.347 60.3492 115.856 74.4461 118.101 74.6824C120.621 74.9383 125.444 73.442 125.444 73.442C125.444 73.442 126.724 76.1196 124.598 77.2025C122.471 78.2853 118.553 80.5101 117.215 82.0262C115.895 83.5619 114.281 79.191 113.474 77.4387C112.962 76.3165 101.858 69.3862 98.4318 66.8464C95.006 64.3066 104.141 57.3762 104.141 57.3762Z" fill="#D6A092"/>
<path d="M124.46 73.3239C125.464 73.0876 127.984 71.7882 128.457 72.8316C128.91 73.8948 128.772 75.1352 127.492 76.2771C126.212 77.419 116.762 83.0499 116.703 82.4002C116.644 81.7505 120.385 78.0491 121.723 77.0647C124.047 75.3715 124.46 73.3042 124.46 73.3042V73.3239Z" fill="#8FA4BC"/>
<path d="M63.4456 57.3958C63.7016 58.0652 64.6663 58.3408 65.631 57.9864L85.9692 50.5442C86.9142 50.1898 87.5049 49.3629 87.2489 48.6935C87.0127 48.0044 86.0282 47.7484 85.0635 48.1028L64.7254 55.545C63.7803 55.8994 63.1897 56.7264 63.4456 57.4154V57.3958Z" fill="#1E1E1E"/>
<path d="M81.1648 48.9889C82.0508 48.2407 84.2362 46.5081 84.9253 46.6066C85.6144 46.705 87.5439 47.4532 87.918 47.8863C88.2921 48.3391 88.5283 49.8748 88.5283 49.8748C88.5283 49.8748 88.3511 50.052 88.1346 49.9339C87.8983 49.7961 87.3667 48.7329 86.8548 48.536C85.9294 48.1816 85.2207 47.8666 84.9056 48.2013C84.5906 48.536 87.0123 49.1464 86.3232 49.4614C85.9294 49.6583 85.8901 49.4023 84.9844 49.4811C84.0787 49.5598 83.8622 50.3867 80.9483 50.2292C80.5545 50.2292 81.1648 48.9692 81.1648 48.9692V48.9889Z" fill="#EAC4B2"/>
<path d="M81.8145 47.7682C81.8145 47.7682 76.4593 48.2604 75.6717 48.1817C74.8645 48.1226 76.0655 51.765 76.2624 52.2375C76.4593 52.71 83.0746 50.5837 83.0746 50.5837L81.8145 47.7485V47.7682Z" fill="#4686D3"/>
<path d="M63.6226 68.6576C58.9171 59.3056 53.9556 49.5204 53.1484 48.1816C52.9515 47.8863 52.8334 47.8272 52.0064 47.9847C50.4707 48.3391 47.9112 49.993 45.273 50.7214L44.8398 49.1267C47.1631 48.4966 49.6044 46.8822 51.6324 46.3703C52.6168 46.075 53.9359 46.2128 54.5856 47.335C56.3773 50.308 74.3331 86.2788 74.3528 86.2985L72.8762 87.0466C72.8762 87.0466 68.3675 78.0293 63.662 68.6576H63.6226Z" fill="#2B2B2B"/>
<path d="M103.59 58.9709C105.893 62.062 115.442 77.0449 117.766 76.7102C120.089 76.3558 125.523 75.4896 125.523 75.4896C125.523 75.4896 127.019 78.4231 124.814 79.5454C122.609 80.6676 119.065 82.2624 117.687 83.8571C116.309 85.4322 114.123 81.6324 113.277 79.821C112.745 78.6594 101.227 71.4534 97.6834 68.8349C94.1394 66.1966 103.59 59.0103 103.59 59.0103V58.9709Z" fill="#EAC4B2"/>
<path d="M63.9177 61.0776C64.9415 64.5822 64.8037 69.9768 69.9424 71.9456C75.0614 73.9342 91.3634 67.9095 94.7498 66.6691C98.1362 65.4288 95.4192 67.9292 97.4668 69.0514C99.5341 70.154 102.31 80.9236 102.31 80.9236L113.139 65.8816C113.139 65.8816 100.735 51.4697 97.0731 51.5484C90.5956 51.6862 73.7226 57.2778 73.7226 57.2778L63.9177 61.0776Z" fill="#6A7B9B"/>
<path d="M116.328 88.3265C116.328 88.3265 104.771 76.1787 103.137 74.1311C102.094 72.9301 101.759 72.9892 101.09 73.1073C100.794 73.1861 100.42 73.3239 100.007 73.5011C99.5932 73.6783 99.101 73.4814 98.9238 73.0483C98.7466 72.6348 98.9435 72.1426 99.3766 71.9654C99.7901 71.7882 100.223 71.611 100.715 71.4732C101.857 71.1385 103.314 71.5519 104.456 73.0876C105.185 73.9933 108.492 77.5766 111.564 80.8449C114.655 84.1329 117.529 87.1649 117.549 87.1846C117.864 87.5193 117.844 88.0509 117.51 88.3659C117.392 88.4643 117.273 88.5431 117.136 88.5627C116.86 88.6415 116.545 88.5627 116.328 88.3265Z" fill="#2B2B2B"/>
<path d="M62.9925 28.316C62.0672 30.4227 62.9925 34.0847 64.922 36.4867C65.6898 37.4317 68.2493 40.0897 69.5291 40.2866C71.1042 40.5228 71.8326 44.1258 69.2141 44.303C66.9105 44.4605 58.3264 37.9633 56.9678 38.3571C57.8932 36.8411 58.8382 32.4899 56.5544 30.0092C54.2705 27.5482 62.9925 28.316 62.9925 28.316Z" fill="#D6A092"/>
<path d="M69.8438 41.5663L64.3311 35.4629C65.2564 35.7976 67.1071 36.5261 67.7175 37.1364C69.391 38.8099 69.8438 39.9322 74.7462 43.4958C76.2229 44.559 77.4632 49.3826 78.113 50.4261C81.8538 56.4311 79.0383 56.4311 79.4912 60.0734C79.5502 60.6247 70.8676 44.618 70.8676 44.618L69.8635 41.5466L69.8438 41.5663Z" fill="#4686D3"/>
<path d="M54.1722 28.9657C52.6365 24.4767 54.6841 20.5194 58.4643 19.909C62.1657 19.3184 65.3946 20.2831 66.2215 24.9493C66.3594 25.7368 68.6826 34.7935 64.1739 35.3054C61.6145 35.6007 55.6882 33.4743 54.1722 28.9854V28.9657Z" fill="#EAC4B2"/>
<path d="M62.6576 22.1142C63.4058 22.7836 63.8586 22.8623 64.9021 23.1774C65.9456 23.4924 66.4969 24.9493 66.615 26.2488C67.186 26.2488 67.6979 23.8271 65.9456 21.7204C64.1933 19.5941 60.2556 18.4915 58.8774 19.8106C61.0235 21.2676 62.6576 22.1339 62.6576 22.1339V22.1142Z" fill="#6A6969"/>
<path d="M72.2462 44.3819C74.5301 47.1186 80.0822 56.825 81.7754 63.0071C76.6958 67.1023 65.1387 69.7209 64.804 68.9924C64.4693 68.2443 63.9377 61.2352 62.8154 59.286C61.6932 57.3172 59.4881 49.5993 58.169 47.7289C56.8695 45.8585 53.365 41.4089 53.365 41.4089L57.4996 36.4277C57.4996 36.4277 69.9427 41.6649 72.2462 44.4016V44.3819Z" fill="#2B55B2"/>
<path d="M67.9148 105.219C67.8163 104.766 68.0723 104.313 68.5251 104.215C70.3561 103.802 89.7492 96.95 95.3014 93.5635C95.9511 93.1895 96.4039 92.7957 96.5417 92.6382C96.4827 87.7555 99.6919 86.0032 99.8691 85.9441L103.256 84.4478C102.566 82.7152 100.755 78.2066 98.8256 73.501C96.3842 67.496 93.7066 61.0973 93.0372 59.8372C92.8994 59.601 92.7419 59.5025 92.289 59.4238C91.8362 59.3647 91.1668 59.4238 90.399 59.6207C88.6467 60.0341 86.481 60.9989 84.8468 61.5895C84.4137 61.747 83.9411 61.5108 83.7836 61.0776C83.6261 60.6445 83.8624 60.1719 84.2955 60.0144C85.8312 59.4632 88.0363 58.4787 90.0052 58.0062C90.8715 57.7896 91.6984 57.6715 92.4859 57.77C93.2538 57.8487 94.0807 58.2622 94.4942 59.0497C96.0299 61.9242 105.087 84.5266 105.087 84.5659C105.244 84.9794 105.067 85.4519 104.653 85.6291L100.578 87.4208C100.578 87.4208 100.578 87.4208 100.519 87.4601C100.519 87.4601 100.381 87.5586 100.263 87.6373C100.046 87.8145 99.7313 88.0902 99.4163 88.4839C98.8059 89.2912 98.1759 90.5906 98.1956 92.6973C98.1956 93.2485 97.9199 93.5439 97.6837 93.8195C97.4277 94.0951 97.1127 94.3314 96.7189 94.607C95.9314 95.1189 94.8879 95.7096 93.6082 96.3199C91.0684 97.5603 87.7016 98.9582 84.2562 100.317C77.3455 103.034 70.238 105.475 68.9189 105.81C68.466 105.908 68.0329 105.652 67.9148 105.199V105.219Z" fill="#2B2B2B"/>
<path d="M61.2207 72.3393C56.1805 62.3179 50.8646 51.8436 49.9786 50.4064C49.7423 50.0717 49.5848 49.9929 48.6988 50.1701C47.045 50.5442 44.2886 52.3161 41.4732 53.1037L41.04 51.5089C43.5405 50.8395 46.159 49.1069 48.3051 48.5556C49.3486 48.2603 50.7268 48.3981 51.3962 49.5598C53.3059 52.7296 72.5612 91.2993 72.5612 91.319L71.0846 92.0671C71.0846 92.0671 66.2609 82.4198 61.201 72.3787L61.2207 72.3393Z" fill="#2B2B2B"/>
<path d="M75.4351 105.731L67.1069 71.2172L67.4219 71.1384L75.7502 105.652L75.4351 105.731Z" fill="#8FA4BC"/>
<path d="M69.2729 106.046L73.25 70.7644L73.5847 70.8038L69.6077 106.085L69.2729 106.046Z" fill="#8FA4BC"/>
<path d="M63.3862 104.254L79.1764 72.4575L79.4717 72.5953L63.6816 104.392L63.3862 104.254Z" fill="#8FA4BC"/>
<path d="M58.4443 100.553L84.1771 76.0605L84.4134 76.3165L58.6806 100.789L58.4443 100.553Z" fill="#8FA4BC"/>
<path d="M55.0974 95.3748L87.6424 81.1794L87.7605 81.4748L55.2155 95.6701L55.0974 95.3748Z" fill="#8FA4BC"/>
<path d="M53.7191 89.7045L53.6995 89.3698L89.1387 87.145L89.1584 87.4797L53.7191 89.7045Z" fill="#8FA4BC"/>
<path d="M54.3489 83.5618L54.4473 83.2468L88.5083 93.2879L88.4099 93.603L54.3489 83.5618Z" fill="#8FA4BC"/>
<path d="M57.0464 78.0096L57.2433 77.7537L85.8112 98.84L85.6143 99.0959L57.0464 78.0096Z" fill="#8FA4BC"/>
<path d="M61.4763 73.7175L61.752 73.5403L81.3813 103.132L81.1057 103.309L61.4763 73.7175Z" fill="#8FA4BC"/>
<path d="M68.9186 88.9957C69.2533 90.3739 70.6512 91.2205 72.0294 90.8858C73.4076 90.5511 74.2542 89.1729 73.9195 87.7947C73.5848 86.4165 72.2066 85.5699 70.8284 85.9046C69.4502 86.2393 68.6036 87.6175 68.9383 89.0154L68.9186 88.9957Z" fill="#6A7B9B"/>
<path d="M48.4623 93.9179C45.4106 81.2386 53.2072 68.4805 65.8866 65.4288C78.5659 62.377 91.324 70.154 94.3757 82.8333C97.4274 95.5127 89.6308 108.271 76.9711 111.323C64.2918 114.374 51.5337 106.597 48.482 93.9179H48.4623ZM50.4902 93.4257C53.3056 104.983 64.9021 112.071 76.4789 109.314C88.036 106.499 95.1239 94.9024 92.3675 83.3256C89.5521 71.7684 77.9359 64.6806 66.3788 67.437C54.8216 70.2524 47.7338 81.8686 50.4902 93.4257Z" fill="#6A7B9B"/>
<path d="M53.6997 92.658C51.337 82.8728 57.3617 73.0483 67.1469 70.6857C76.932 68.3231 86.7566 74.328 89.1192 84.1132C91.4818 93.8983 85.4768 103.723 75.6917 106.085C65.9065 108.448 56.0623 102.423 53.6997 92.658ZM54.5069 92.4611C56.7711 101.793 66.1427 107.523 75.4948 105.278C84.8271 103.014 90.5564 93.6424 88.3119 84.3101C86.0478 74.9777 76.6761 69.2484 67.3241 71.4929C57.9917 73.7571 52.2624 83.1288 54.5069 92.4808V92.4611Z" fill="#6A7B9B"/>
<path d="M103.118 98.4267C103.846 101.419 106.859 103.25 109.851 102.542C112.844 101.813 114.695 98.8008 113.966 95.8082C113.238 92.8155 110.225 90.9648 107.233 91.6933C104.24 92.4218 102.389 95.4341 103.118 98.4267ZM106.957 94.3119C108.493 93.4456 110.462 93.9772 111.348 95.5325C112.234 97.0879 111.682 99.0371 110.127 99.9231C108.572 100.809 106.622 100.258 105.736 98.7024C104.87 97.147 105.402 95.1781 106.957 94.3119Z" fill="#1E1E1E"/>
<path d="M108.709 86.8105L106.209 87.4209C106.209 87.4209 108.808 93.2684 107.863 96.4382C107.371 98.1708 108.67 98.2298 109.083 97.5408C109.497 96.8517 110.718 93.6227 109.792 90.7482C108.887 87.8737 108.69 86.8105 108.69 86.8105H108.709Z" fill="#6A7B9B"/>
<path d="M57.6374 34.8132C59.3307 35.7386 62.0083 36.5064 63.4849 37.6287C64.9615 38.7509 73.6441 44.8543 72.7975 44.3818C71.7541 43.7912 64.1937 41.3498 62.1067 40.5229C60.0394 39.6763 56.6924 38.6328 56.3577 37.7665C56.023 36.9199 57.6571 34.8329 57.6571 34.8329L57.6374 34.8132Z" fill="#4686D3"/>
<path d="M71.1829 53.8913C72.0492 53.4581 73.8605 52.5721 74.7071 52.1587C75.8687 51.5877 76.1641 51.8043 77.1091 51.1743C78.0541 50.5639 78.3298 50.7411 77.5619 51.509C77.0894 51.9815 76.3019 52.395 76.3019 52.395C76.3019 52.395 77.621 51.9815 78.192 51.8634C78.7629 51.7452 79.767 51.4499 80.1411 51.7452C80.5152 52.0209 79.4914 52.3162 78.9992 52.5721C80.2789 52.0209 80.3577 52.1981 80.4758 52.6115C80.594 53.025 79.1173 53.3006 78.7432 53.4778C79.8064 53.1825 80.4561 52.9265 80.594 53.4188C80.6924 53.7928 79.4914 54.2457 79.0386 54.3835C80.3774 54.1078 80.4365 53.6353 80.5743 54.1275C80.6727 54.5213 78.6645 55.3088 77.877 55.5648C76.9516 55.8798 74.3724 56.0964 73.2895 56.3917C72.2067 56.7067 70.9663 56.9036 70.9663 56.9036L71.2026 53.911L71.1829 53.8913Z" fill="#D6A092"/>
<path d="M55.4912 40.0701C53.9555 39.9323 52.5379 41.9011 52.6561 43.4171C52.7742 44.9331 55.2746 56.5493 61.4371 60.4279C62.3428 60.9989 73.6439 56.884 74.6677 56.4312C75.7703 54.9152 73.6243 52.651 73.6243 52.651C73.6243 52.651 64.4101 53.0054 63.7997 51.9422C63.5438 51.4894 60.1377 47.9061 60.118 46.1341C60.0983 44.3425 58.6217 40.326 55.4715 40.0701H55.4912Z" fill="#4686D3"/>
<path d="M62.8943 21.7599C64.3906 22.9018 63.9181 23.965 62.3234 24.7919C60.9452 25.5204 59.5867 25.5007 59.0748 27.9617C59.0748 27.9617 56.9484 27.7649 58.051 29.7928C58.5825 30.7772 58.7991 30.1472 58.996 30.9938C59.1141 31.5057 57.5587 35.6206 57.5587 35.6206C57.5587 35.6206 50.8647 31.7419 52.8138 24.7919C54.1526 20.047 57.3619 19.4367 58.8582 19.7714C60.3545 20.1061 62.8746 21.7402 62.8746 21.7402L62.8943 21.7599Z" fill="#6A6969"/>
<path d="M64.5673 35.1677C65.4729 35.5812 67.2055 35.9946 68.0127 37.1366C68.82 38.2785 72.5608 46.0357 72.5608 46.0357C72.5608 46.0357 67.3827 39.4795 66.3786 38.2982C65.3745 37.1169 63.8191 35.404 63.8191 35.404L64.5476 35.1874L64.5673 35.1677Z" fill="#2B55B2"/>
<path d="M113.848 81.0024C114.832 81.1205 116.368 81.3764 117.667 80.7858C121.979 78.8563 123.515 76.3362 123.712 75.6865C123.909 75.0368 128.102 74.328 128.654 75.1549C129.205 75.9818 128.654 77.3009 127.374 78.4429C126.094 79.5848 122.019 80.5298 121.073 82.2034C120.187 83.7587 117.136 85.8063 116.053 84.7628C114.97 83.7194 113.828 81.0024 113.828 81.0024H113.848Z" fill="#6A7B9B"/>
<path d="M169.645 81.8389L62.0269 111.805L63.8806 118.463L171.499 88.4963L169.645 81.8389Z" fill="#8FA4BC"/>
<path d="M399.941 82.9909C398.405 73.3633 392.38 59.6404 392.38 59.6404C387.852 49.1662 336.13 34.0848 336.13 34.0848L304.846 5.98942C295.198 -1.23624 184.037 -2.31911 168.523 9.96648C165.294 9.96648 151.295 40.1292 146.767 72.4379C146.334 75.6078 145.271 79.8605 143.558 84.0541C142.672 86.2198 137.927 85.2945 138.97 87.854C142.691 96.9697 158.423 99.5686 158.423 99.5686C158.423 99.5686 168.424 99.5686 171.929 99.6277C171.752 98.5448 171.673 97.4422 171.673 96.32C171.673 84.6251 181.143 76.4544 192.818 76.4544C204.494 76.4544 213.964 84.6251 213.964 96.32C213.964 97.5997 213.846 98.8401 213.629 100.061C242.748 99.9624 303.507 100.061 334.457 100.277C334.142 98.8007 334.142 97.8951 334.142 96.32C334.142 84.6251 343.612 76.4544 355.287 76.4544C366.963 76.4544 376.433 84.6251 376.433 96.32C376.433 97.9541 376.236 99.5489 375.881 101.065C387.557 101.065 393.759 100.907 394.822 100.199C398.385 97.7769 403.819 93.2289 404.686 88.8778C404.883 87.0467 400.236 84.7432 399.941 82.9515V82.9909Z" fill="#00242A"/>
<path d="M334.752 96.5759C334.752 85.511 343.73 76.5527 354.795 76.5527C365.86 76.5527 374.838 85.511 374.838 96.5759C374.838 107.641 365.88 116.599 354.795 116.599C343.71 116.599 334.752 107.641 334.752 96.5759Z" fill="#232121"/>
<path d="M341.21 96.576C341.21 89.0747 347.294 82.991 354.795 82.991C362.296 82.991 368.38 89.0747 368.38 96.576C368.38 104.077 362.296 110.161 354.795 110.161C347.294 110.161 341.21 104.077 341.21 96.576ZM343.258 96.576C343.258 102.955 348.436 108.113 354.815 108.113C361.194 108.113 366.352 102.955 366.352 96.576C366.352 90.1969 361.194 85.0386 354.815 85.0189C348.436 85.0189 343.277 90.1969 343.258 96.576Z" fill="#898989"/>
<path d="M366.903 99.2732C361.962 98.9778 358.319 97.8753 358.319 96.5758C358.319 95.2764 361.981 94.1738 366.903 93.8785C366.588 92.461 366.017 91.1221 365.269 89.9015C361.568 93.1697 358.201 95.0008 357.295 94.0754C356.37 93.15 358.201 89.7833 361.469 86.1016C360.682 85.6094 359.835 85.1762 358.91 84.8612C358.437 84.7037 357.965 84.5659 357.492 84.4478C357.197 89.3699 356.114 93.0319 354.795 93.0319C353.476 93.0319 352.393 89.3699 352.098 84.4478C350.7 84.7628 349.341 85.314 348.14 86.1016C351.409 89.803 353.24 93.15 352.314 94.0754C351.389 95.0008 348.022 93.1697 344.34 89.9015C343.848 90.689 343.415 91.5356 343.1 92.461C342.942 92.9335 342.805 93.406 342.687 93.8785C347.609 94.1738 351.29 95.2567 351.29 96.5758C351.29 97.895 347.628 98.9778 342.687 99.2732C343.002 100.691 343.573 102.03 344.34 103.25C348.042 99.9622 351.389 98.1509 352.314 99.0763C353.24 100.002 351.409 103.368 348.14 107.07C348.928 107.562 349.774 107.995 350.7 108.31C351.172 108.468 351.645 108.605 352.117 108.724C352.413 103.782 353.515 100.12 354.815 100.12C356.114 100.12 357.217 103.782 357.512 108.724C358.929 108.409 360.268 107.838 361.469 107.07C358.201 103.388 356.39 100.021 357.295 99.096C358.221 98.1706 361.587 99.9819 365.289 103.27C365.781 102.482 366.214 101.636 366.529 100.71C366.687 100.238 366.825 99.7654 366.923 99.2928L366.903 99.2732Z" fill="#898989"/>
<path d="M172.657 96.576C172.657 85.5111 181.635 76.5332 192.68 76.5332C203.725 76.5332 212.723 85.4914 212.723 96.576C212.723 107.661 203.745 116.599 192.68 116.599C181.615 116.599 172.657 107.641 172.657 96.576Z" fill="#232121"/>
<path d="M179.095 96.576C179.095 89.0747 185.179 82.991 192.68 82.991C200.182 82.991 206.265 89.0747 206.265 96.576C206.265 104.077 200.182 110.161 192.68 110.161C185.179 110.161 179.095 104.077 179.095 96.576ZM181.143 96.576C181.143 102.955 186.321 108.113 192.7 108.113C199.079 108.113 204.237 102.955 204.237 96.576C204.237 90.1969 199.079 85.0386 192.7 85.0189C186.321 85.0189 181.163 90.1969 181.143 96.576Z" fill="#898989"/>
<path d="M204.788 99.2734C199.847 98.9781 196.204 97.8755 196.204 96.5761C196.204 95.2766 199.866 94.1741 204.788 93.8788C204.473 92.4612 203.902 91.1224 203.135 89.9017C199.453 93.17 196.086 95.001 195.161 94.0756C194.235 93.1503 196.066 89.7836 199.335 86.1018C198.547 85.6096 197.701 85.1765 196.775 84.8615C196.303 84.7039 195.83 84.5661 195.358 84.448C195.062 89.3701 193.96 93.0322 192.66 93.0322C191.361 93.0322 190.258 89.3701 189.963 84.448C188.565 84.763 187.207 85.3143 186.006 86.1018C189.274 89.8033 191.085 93.1503 190.18 94.0756C189.254 95.001 185.888 93.17 182.206 89.9017C181.714 90.6892 181.28 91.5358 180.965 92.4612C180.808 92.9337 180.67 93.4062 180.552 93.8788C185.494 94.1741 189.156 95.257 189.156 96.5761C189.156 97.8952 185.494 98.9781 180.552 99.2734C180.867 100.691 181.438 102.03 182.206 103.25C185.888 99.9625 189.254 98.1512 190.18 99.0765C191.105 100.002 189.274 103.369 186.006 107.07C186.793 107.562 187.64 107.995 188.565 108.31C189.038 108.468 189.51 108.606 189.963 108.724C190.258 103.782 191.361 100.12 192.66 100.12C193.96 100.12 195.062 103.782 195.358 108.724C196.775 108.409 198.114 107.838 199.315 107.07C196.047 103.388 194.216 100.022 195.141 99.0962C196.066 98.1708 199.433 99.9822 203.115 103.27C203.607 102.483 204.04 101.636 204.355 100.711C204.513 100.238 204.651 99.7656 204.749 99.2931L204.788 99.2734Z" fill="#898989"/>
<path d="M196.343 76.4151H145.822C143.44 77.6161 138.518 78.3643 138.34 79.4471C138.242 80.0181 138.163 80.5497 138.104 81.0813C137.474 86.535 144.641 90.1183 149.149 91.8115H172.362C172.362 91.398 172.323 90.9846 172.323 90.5514C172.323 85.3931 181.045 75.2535 196.343 76.4151Z" fill="#231815"/>
<path d="M353.614 76.4151H194.295C206.246 76.3167 210.459 85.0387 213.038 90.5514C213.216 90.9255 214.574 91.3783 214.554 91.8115H334.772V90.5514C334.772 85.3931 342.411 76.7498 353.614 76.4151Z" fill="#231815"/>
<path d="M403.957 80.274C402.717 78.8761 399.626 76.7498 397.677 76.4151H352.748C364.817 74.9188 377.063 85.3733 377.063 90.5514C377.063 90.9648 377.063 91.3783 377.043 91.8114H400.492C402.047 89.3307 404.883 88.7794 405.316 85.8655C405.454 84.3495 405.276 82.7744 403.938 80.2937L403.957 80.274Z" fill="#231815"/>
<path opacity="0.63" d="M276.671 58.9908C276.671 59.6602 276.139 60.1918 275.47 60.1918H265.842C265.173 60.1918 264.641 59.6405 264.641 58.9908C264.641 58.3214 265.193 57.7898 265.842 57.7898H275.47C276.139 57.7898 276.671 58.3214 276.671 58.9908Z" fill="#949495"/>
<path opacity="0.63" d="M256.077 58.9908C256.077 59.6602 255.545 60.1918 254.876 60.1918H245.248C244.579 60.1918 244.047 59.6405 244.047 58.9908C244.047 58.3214 244.599 57.7898 245.248 57.7898H254.876C255.545 57.7898 256.077 58.3214 256.077 58.9908Z" fill="#949495"/>
<g style="mix-blend-mode:multiply">
<path d="M372.692 75.9622C372.692 72.497 373.263 64.5232 376.511 64.5232C379.76 64.5232 393.857 64.7201 393.857 64.7201C393.857 64.7201 398.818 75.529 397.421 75.529C393.148 75.529 372.692 75.9622 372.692 75.9622Z" fill="#C69320"/>
</g>
<path d="M373.893 74.6234C373.893 71.8079 374.425 65.3501 377.437 65.3501C380.449 65.3501 393.975 65.4289 393.975 65.4289C393.975 65.4289 397.716 74.4265 397.106 74.4265C393.129 74.4265 373.893 74.643 373.893 74.643V74.6234Z" fill="#E5E5E5"/>
<path d="M382.595 74.1115L375.606 74.1903C374.169 74.1903 374.602 72.1427 375.035 69.7997C375.429 67.6734 376.255 66.0786 377.456 66.0786H382.772C383.087 66.0786 382.989 74.1312 382.595 74.1312V74.1115Z" fill="#F28C30"/>
<path d="M178.032 81.593H138.222C138.222 82.3018 137.868 83.5422 137.69 84.625C137.592 85.196 137.513 85.7276 137.454 86.2592C136.824 91.7129 147.869 95.2962 152.378 96.9894H171.712C171.712 96.5759 171.673 96.1625 171.673 95.7293C171.673 90.5709 174.37 85.5898 178.032 81.593Z" fill="#3E3A39"/>
<path d="M340.481 81.593H207.348C211.66 86.0229 213.983 90.5513 213.983 95.7293C213.983 96.1428 213.963 96.5562 213.944 96.9894H334.161C334.161 96.5956 334.161 96.1822 334.161 95.7293C334.161 90.5709 336.406 85.3732 340.501 81.593H340.481Z" fill="#3E3A39"/>
<path d="M405.433 85.1566C405.394 84.31 405.473 81.9277 403.543 81.593H369.561C373.44 85.8063 376.432 90.5513 376.432 95.7293C376.432 96.1428 376.432 96.5562 376.413 96.9894H399.035C401.614 95.4143 404.528 91.3585 405.374 88.4643C405.512 86.9483 405.532 86.5742 405.453 85.1566H405.433Z" fill="#3E3A39"/>
<path opacity="0.57" d="M150.252 59.9555C151.787 59.1876 153.697 60.8218 154.13 64.7004C154.563 68.579 153.599 74.8793 153.599 74.8793H145.684C145.684 74.8793 147.672 61.2549 150.271 59.9555H150.252Z" fill="#CE0000"/>
<path d="M154.76 75.1945C154.76 76.0017 153.796 76.6514 152.614 76.6514H147.003C145.822 76.6514 144.857 76.0017 144.857 75.1945C144.857 74.3873 145.822 73.7375 147.003 73.7375H152.614C153.796 73.7375 154.76 74.3873 154.76 75.1945Z" fill="#E5E5E5"/>
<g style="mix-blend-mode:soft-light">
<path d="M208.333 42.984C207.801 47.7682 204.159 51.7847 200.201 51.7847H170.708C166.751 51.7847 164.664 47.7682 166.022 42.984L172.322 20.6769C173.405 16.8574 176.989 13.8647 180.355 13.8647H205.478C208.844 13.8647 211.246 16.8574 210.833 20.6769L208.352 42.984H208.333Z" fill="#38A6DF"/>
</g>
<g style="mix-blend-mode:soft-light">
<path d="M254.896 42.984C255.27 47.7682 252.356 51.7847 248.398 51.7847H218.925C214.967 51.7847 212.132 47.7682 212.585 42.984L214.672 20.6769C215.026 16.8574 218.039 13.8647 221.425 13.8647H246.548C249.914 13.8647 252.887 16.8574 253.183 20.6769L254.915 42.984H254.896Z" fill="#38A6DF"/>
</g>
<g style="mix-blend-mode:soft-light">
<path d="M323.923 44.9922C321.955 41.6255 300.829 17.9403 294.43 15.0461C293.229 14.2979 291.89 13.8647 290.571 13.8647H264.897C261.452 13.8647 258.952 16.8574 259.326 20.6769L261.511 42.984C261.984 47.7682 265.646 51.7847 269.701 51.7847L320.793 51.4894C320.793 51.4894 326.542 49.5205 323.904 45.0119L323.923 44.9922Z" fill="#38A6DF"/>
</g>
<g style="mix-blend-mode:multiply" opacity="0.47">
<path d="M330.105 47.906C330.775 44.0274 302.798 16.0698 297.521 12.1912C292.225 8.31255 259.857 9.11978 255.23 9.11978C255.23 9.11978 256.786 18.8065 257.435 33.0412C258.105 47.2563 260.507 100.258 260.507 100.258H330.086C330.086 100.258 329.436 51.7846 330.086 47.906H330.105ZM329.003 98.4659H261.964C261.964 98.4659 259.207 47.8666 258.577 34.1635C257.947 20.4603 256.707 10.1239 256.707 10.1239C261.117 10.1239 291.831 9.11978 296.871 12.8409C301.912 16.5817 329.16 44.244 329.023 48.0241C328.806 53.7141 329.023 98.4463 329.023 98.4463L329.003 98.4659Z" fill="#D69034"/>
</g>
<path d="M32.8493 30.1077C33.2824 31.8599 35.3497 41.9798 35.3497 41.9798L46.0799 45.4843C46.0799 45.4843 50.057 46.2325 50.2735 47.1185C50.2735 47.1185 50.2735 47.1578 50.2735 47.1775C50.7264 47.8076 51.5533 48.9889 51.2186 49.363C51.0808 49.5205 50.8445 49.678 50.5098 49.363C50.2932 49.1464 50.0176 48.9101 49.801 48.7329C49.801 48.7329 49.801 48.7329 49.801 48.7526C50.2145 49.1858 50.8839 49.9339 50.5886 50.1899C50.2735 50.4655 49.8995 50.3277 49.5648 50.0914C49.742 50.3277 49.8404 50.564 49.7223 50.6821C49.486 50.938 48.7969 50.4458 48.4425 50.1702C48.4425 50.1702 48.4425 50.1702 48.4228 50.1702C48.6591 50.4064 48.9544 50.8002 48.6 50.879C48.2653 50.9577 47.5565 50.6624 47.0643 50.3671C46.3359 50.0914 46.2571 48.7723 44.4458 48.3982C40.5475 47.5713 31.9633 46.1341 31.0576 44.8149C29.6597 42.8264 29.8172 35.7386 28.38 29.8123C28.0453 28.4341 32.8493 30.088 32.8493 30.088V30.1077Z" fill="#D6A092"/>
<path d="M14.2831 115.201C14.3422 115.477 14.5588 116.914 14.5588 116.914C14.5588 116.914 14.8935 117.446 17.3348 117.387C18.7327 117.347 23.7729 118.096 25.0921 117.584C26.2537 117.131 26.1356 115.516 25.9584 115.556C25.7812 115.615 14.2634 115.182 14.2634 115.182L14.2831 115.201Z" fill="#6A7B9B"/>
<path d="M14.9525 110.614C14.9525 112.977 13.3184 115.477 15.0313 116.265C16.5867 116.973 16.882 115.674 19.7565 116.599C21.3906 117.131 23.6351 117.111 24.7574 116.934C25.604 116.816 27.2381 115.438 24.5605 114.65C21.686 113.803 18.2405 110.85 17.2364 110.85C16.2323 110.85 14.9525 110.594 14.9525 110.594V110.614Z" fill="#6A7B9B"/>
<path d="M0.875164 112.72C0.79641 112.996 0.304199 114.355 0.304199 114.355C0.304199 114.355 0.343576 114.985 2.52899 116.107C3.76937 116.757 7.84487 119.789 9.24275 119.985C10.4831 120.163 11.1525 118.666 10.9753 118.627C10.7981 118.588 0.875164 112.72 0.875164 112.72Z" fill="#6A7B9B"/>
<path d="M3.67122 108.999C2.54898 111.067 -0.0892698 112.504 1.05266 114C2.07646 115.359 2.96244 114.374 5.02973 116.54C6.21103 117.78 8.19957 118.844 9.26274 119.237C10.0503 119.533 12.1569 119.119 10.1684 117.131C8.06175 115.024 6.42761 110.771 5.54163 110.299C4.65565 109.807 3.65154 108.98 3.65154 108.98L3.67122 108.999Z" fill="#8FA4BC"/>
<path d="M15.1492 54.5017C14.8144 56.1949 12.2353 63.519 13.3181 68.2639C14.0072 71.2959 12.1762 80.4905 10.7783 85.4126C9.65608 89.3503 0.0874922 106.637 0.756899 110.023C5.40337 113.154 9.38044 113.035 9.38044 113.035C9.38044 113.035 17.7283 93.6227 19.9138 90.886C23.1623 86.8301 23.1033 82.4199 26.6472 70.1146C29.2855 60.9989 29.7383 58.8135 29.7383 58.8135L15.1492 54.5214V54.5017Z" fill="#2B2B2B"/>
<path style="mix-blend-mode:multiply" d="M13.1411 64.9957L13.4561 70.666L11.6448 82.42L29.5416 66.4133L20.288 59.6602L13.1411 64.9957Z" fill="url(#paint0_linear_413_15182)"/>
<path d="M33.8536 34.7937C34.1096 34.9906 33.322 33.5336 32.5345 28.4343C32.0423 24.9889 34.5624 20.8149 36.5903 20.1849C36.5903 20.1849 31.8454 11.7385 30.6247 14.8296C27.5139 22.705 25.8798 22.8428 24.8757 24.3588C24.2063 24.7132 34.2868 37.7864 33.8536 34.774V34.7937Z" fill="#EAC4B2"/>
<path style="mix-blend-mode:multiply" d="M33.4398 23.5122C33.0066 23.8075 27.3364 26.5245 26.5291 26.8198L25.7219 23.2365L29.1083 19.0232L35.4677 20.8936C33.8926 21.9961 34.9755 22.4884 33.4398 23.5122Z" fill="url(#paint1_linear_413_15182)"/>
<path d="M39.2674 19.6532C39.3265 19.3185 38.9524 19.0626 38.8342 17.3891C38.9327 16.9362 38.9918 16.5818 39.0114 16.4637C39.8384 11.6991 38.283 8.33237 34.4831 7.68265C30.6832 7.01325 27.5134 8.33237 26.6668 13.097C25.8399 17.8616 28.3009 20.8739 30.3092 22.4293C30.9786 22.9412 34.5028 24.4178 35.3888 24.0831C36.5701 23.6106 37.4167 22.0158 38.0073 20.3817C38.4011 20.3423 39.169 20.3226 39.2871 19.6729L39.2674 19.6532Z" fill="#EAC4B2"/>
<path d="M25.7024 10.0059C27.8681 5.81227 33.6369 6.16666 37.5155 8.70647C38.3818 9.27743 38.7362 10.0256 38.8937 10.6162C40.705 12.3882 39.0709 12.841 37.9486 13.0576C36.8067 13.2545 32.3177 15.4202 32.0815 15.7746C31.8649 16.129 31.4908 14.4358 30.723 15.1052C29.6795 16.0109 30.1323 18.0191 30.1323 18.0191L27.9863 20.303C27.9863 20.303 22.6704 15.9124 25.6827 10.0453L25.7024 10.0059Z" fill="#A0593A"/>
<path d="M25.7024 10.0058C24.1076 9.47419 20.7015 9.71045 19.4612 13.8056C18.2208 17.8812 19.5005 20.0666 19.5005 20.0666L23.7533 21.1101C23.7533 21.1101 24.6589 12.1124 25.4071 12.0534C26.1749 11.9943 25.6827 10.0058 25.6827 10.0058H25.7024Z" fill="#A0593A"/>
<path d="M16.4093 65.7045L18.8703 62.5543L20.2879 66.3345C25.84 67.1417 30.1715 67.6339 30.1715 67.6339C30.1715 67.6339 31.215 55.1121 32.2191 48.6346C32.3569 47.7289 32.7704 44.6969 33.5382 44.4016C34.6802 43.9684 35.6252 40.1095 35.3299 38.6919C34.6802 35.6009 34.1486 33.061 33.7154 30.9938C33.7154 30.9938 29.2461 26.3079 28.5177 25.5401C26.5685 23.5121 26.2732 23.1971 26.1944 22.7246C24.7769 23.9256 23.064 26.4063 22.2961 27.1742C19.9729 30.1865 18.0828 34.8133 17.4528 37.4319C15.2673 46.4492 12.6488 55.9193 10.1483 64.3066C10.0499 64.6413 13.8695 65.291 16.4093 65.7242V65.7045Z" fill="#141451"/>
<path d="M25.348 52.8087C23.891 52.5724 19.6974 51.3714 19.3233 51.1154C18.9689 50.8595 16.5669 57.0023 16.9607 57.3764C17.6301 58.0064 23.9501 60.2312 24.2848 59.109C24.6195 58.0064 25.348 52.8087 25.348 52.8087Z" fill="#1C3584"/>
<path d="M25.7219 23.2366C25.7219 23.2366 26.1353 23.9257 26.9622 24.8707C27.7891 25.8158 33.105 31.0135 33.105 31.0135L33.8729 31.7617L34.2076 33.2383L33.0853 31.9979C33.0853 31.9979 25.21 24.5951 25.21 23.8272C25.21 23.4728 25.6825 23.2366 25.6825 23.2366H25.7219Z" fill="#1C3584"/>
<path d="M28.4392 30.1668C28.7936 32.0372 30.4474 42.9249 30.4474 42.9249L41.6502 47.2564C41.6502 47.2564 45.8438 48.2802 46.021 49.2252C46.021 49.2252 46.021 49.2646 46.021 49.2843C46.4738 49.9734 47.2811 51.2925 46.907 51.6666C46.7495 51.8241 46.4935 51.9816 46.1588 51.6272C45.9422 51.3909 45.6469 51.1153 45.45 50.9184C45.45 50.9184 45.45 50.9381 45.45 50.9578C45.8635 51.4303 46.5329 52.2769 46.1982 52.5329C45.8438 52.8085 45.45 52.651 45.1153 52.3753C45.2728 52.6313 45.3713 52.8872 45.2335 53.0251C44.9775 53.281 44.2687 52.7297 43.9143 52.4147C43.9143 52.4147 43.9143 52.4147 43.8946 52.4147C44.1112 52.6904 44.4065 53.1038 44.0325 53.1826C43.6781 53.2416 42.9496 52.9069 42.418 52.5525C41.6502 52.2178 41.6502 50.82 39.7404 50.3081C35.6452 49.2252 26.6082 47.1973 25.7025 45.76C24.344 43.5746 24.8756 36.0536 23.6943 29.6746C23.4187 28.1979 28.4392 30.2258 28.4392 30.2258V30.1668Z" fill="#EAC4B2"/>
<path d="M28.1439 28.7492C29.6206 29.2414 31.3138 39.6566 31.6288 41.7239C26.3326 43.6337 23.4581 44.2243 23.4581 44.2243C23.4581 44.2243 20.6032 30.9149 22.7296 29.0839C26.5885 25.7172 28.1439 28.7492 28.1439 28.7492Z" fill="#1C3584"/>
<defs>
<linearGradient id="paint0_linear_413_15182" x1="19.1461" y1="86.653" x2="22.6506" y2="53.1827" gradientUnits="userSpaceOnUse">
<stop stop-color="white"/>
<stop offset="0.12" stop-color="#F9F9F9"/>
<stop offset="0.27" stop-color="#E9E9E9"/>
<stop offset="0.44" stop-color="#CFCFCF"/>
<stop offset="0.62" stop-color="#ABABAB"/>
<stop offset="0.81" stop-color="#7D7D7D"/>
<stop offset="1" stop-color="#474747"/>
</linearGradient>
<linearGradient id="paint1_linear_413_15182" x1="28.3307" y1="27.8073" x2="33.2063" y2="14.408" gradientUnits="userSpaceOnUse">
<stop stop-color="white"/>
<stop offset="0.1" stop-color="#F3F2F1"/>
<stop offset="0.71" stop-color="#B3A6A1"/>
</linearGradient>
</defs>
</svg>
