<svg width="19" height="18" viewBox="0 0 19 18" xmlns="http://www.w3.org/2000/svg">
<g clip-path="url(#clip0_701_1925)">
<path d="M18.1875 1.40625V7.03125C18.1875 7.49883 17.8113 7.875 17.3438 7.875H11.7188C11.2547 7.875 10.875 7.49883 10.875 7.03125C10.875 6.56367 11.2529 6.1875 11.7188 6.1875H15.252C14.2078 4.15898 12.0879 2.8125 9.75 2.8125C6.3082 2.8125 3.5625 5.5582 3.5625 9C3.5625 12.4418 6.33879 15.1875 9.75 15.1875C11.1946 15.1875 12.6008 14.6788 13.7086 13.7549C14.0658 13.4561 14.5984 13.5033 14.8972 13.8625C15.1961 14.2208 15.1477 14.7523 14.7896 15.0512C13.3777 16.2268 11.5844 16.8712 9.74466 16.8712C5.40469 16.8715 1.875 13.3418 1.875 9C1.875 4.6582 5.40469 1.12852 9.74648 1.12852C12.5537 1.12852 15.1043 2.65641 16.5 4.96406V1.40625C16.5 0.94043 16.8779 0.5625 17.3438 0.5625C17.8096 0.5625 18.1875 0.94043 18.1875 1.40625Z" fill="white"/>
</g>
<defs>
<clipPath id="clip0_701_1925">
<rect width="18" height="18" fill="white" transform="translate(0.75)"/>
</clipPath>
</defs>
</svg>
