<svg width="18" height="18" viewBox="0 0 18 18" fill="none" xmlns="http://www.w3.org/2000/svg">
<circle cx="9" cy="9" r="9" fill="#F19700"/>
<path d="M11.8519 11.3243C12.0275 11.5073 12.0275 11.8042 11.8519 11.9872C11.6762 12.1702 11.3912 12.1702 11.2155 11.9872L9 9.6622L6.76875 11.9864C6.59308 12.1694 6.30806 12.1694 6.13237 11.9864C5.95668 11.8034 5.9567 11.5065 6.13237 11.3235L8.36437 9.00009L6.13175 6.65829C5.95608 6.47531 5.95608 6.17841 6.13175 5.9954C6.30742 5.8124 6.59244 5.81241 6.76813 5.9954L9 8.33798L11.2312 6.01376C11.4069 5.83077 11.6919 5.83077 11.8676 6.01376C12.0433 6.19675 12.0433 6.49364 11.8676 6.67665L9.63562 9.00009L11.8519 11.3243Z" fill="white"/>
</svg>
