<svg width="26" height="26" viewBox="0 0 26 26" fill="none" xmlns="http://www.w3.org/2000/svg">
<rect width="26" height="26" rx="13" fill="#F19700"/>
<path d="M12.6653 23.4912C12.6653 23.4912 12.66 23.4912 12.6573 23.4912C12.5401 23.4886 12.4388 23.414 12.4015 23.3047C11.8205 21.6471 10.2775 20.6584 8.7878 19.7017C7.08755 18.609 5.32867 17.4791 5.07016 15.3604C4.83032 13.3937 5.20608 11.864 6.18679 10.8113C7.30341 9.61472 8.87841 9.38553 9.61128 9.34822C8.18552 4.75913 10.2749 2.67512 10.3681 2.58717C10.4241 2.53387 10.5014 2.50456 10.5787 2.50989C10.656 2.51522 10.7306 2.55253 10.7785 2.61382C12.6627 4.93502 12.231 7.3335 11.7779 8.60202C12.4362 8.27423 13.3955 8.02905 14.3469 8.62068C14.4402 8.67931 14.4909 8.78591 14.4775 8.89251C14.4642 9.00177 14.3896 9.09238 14.2857 9.12703C14.2777 9.12969 13.5528 9.3722 13.1664 9.84657C13.71 9.79061 14.5042 9.93718 15.1837 10.9872C16.4896 10.3742 17.7848 10.7713 17.8034 10.7766C19.8794 11.4482 21.044 12.9193 20.9987 14.8167C20.9428 17.2659 18.9147 19.651 16.2844 20.3679C13.9232 21.0102 12.9345 23.302 12.9238 23.326C12.8812 23.43 12.7773 23.4992 12.6653 23.4992V23.4912ZM9.89643 9.89987C9.49136 9.89987 7.72981 9.97449 6.59187 11.195C5.73108 12.1198 5.40595 13.4976 5.62448 15.2885C5.851 17.1459 7.42334 18.156 9.08895 19.2273C10.4907 20.128 11.9351 21.0581 12.6893 22.5558C13.1584 21.7617 14.2377 20.3386 16.1351 19.8216C18.5363 19.1687 20.3858 17.01 20.4364 14.8008C20.4764 13.1458 19.4797 11.9066 17.6302 11.307C17.5556 11.283 15.7994 10.7553 14.4935 12.1784C15.373 13.3457 16.6095 15.2805 16.5829 16.9088C16.5615 18.1773 15.9912 19.2006 15.0585 19.651C14.0884 20.1201 12.8865 19.8909 11.7672 19.0274C10.1016 17.7429 9.39809 15.6642 9.36877 15.5763C9.3208 15.4297 9.40075 15.2698 9.54732 15.2218C9.6939 15.1739 9.8538 15.2538 9.90177 15.4004C9.9071 15.419 10.584 17.4071 12.111 18.5824C13.0571 19.3126 14.0431 19.5178 14.8186 19.1447C15.5568 18.7876 16.0099 17.9481 16.0259 16.8981C16.0632 14.6515 13.257 11.5415 13.2277 11.5095C13.1744 11.4482 13.1477 11.3683 13.1557 11.2883C13.1637 11.2084 13.209 11.1364 13.2756 11.0884C13.5901 10.8699 14.0351 10.8539 14.4136 10.8939C13.6567 10.0864 12.8999 10.4595 12.8039 10.5128C12.7106 10.5634 12.5934 10.5581 12.5054 10.4968C12.4175 10.4355 12.3722 10.3289 12.3909 10.2223C12.5001 9.56142 13.0518 9.1217 13.5048 8.86319C12.3829 8.61535 11.3329 9.55875 11.3222 9.56941C11.2183 9.66269 11.061 9.66802 10.9544 9.57741C10.8478 9.4868 10.8212 9.33223 10.8958 9.21497C10.9731 9.08972 12.708 6.17956 10.56 3.2321C10.0803 3.88768 9.02232 5.87576 10.2695 9.52944C10.2988 9.61738 10.2829 9.71598 10.2269 9.7906C10.1709 9.86522 10.0803 9.90786 9.98704 9.90253C9.98704 9.90253 9.95507 9.90253 9.90177 9.90253L9.89643 9.89987ZM13.9152 11.4482C13.9818 11.5282 14.0618 11.6214 14.1471 11.728C14.2403 11.6321 14.3336 11.5442 14.4296 11.4642C14.2537 11.4402 14.0725 11.4296 13.9152 11.4482Z" fill="white"/>
<path d="M17.5102 11.267C17.3743 11.267 17.2544 11.1684 17.2331 11.0298C17.2091 10.8779 17.313 10.734 17.4676 10.71C17.9286 10.6381 18.2218 10.4142 18.2538 10.1131C18.2804 9.84924 18.1045 9.59873 17.814 9.48947C17.5315 9.38287 17.0225 9.56142 16.5748 9.71599C16.0285 9.9052 15.5142 10.0838 15.1384 9.88921C15.0211 9.82792 14.8666 9.7 14.7946 9.43883C14.6667 8.97512 14.7706 8.50342 15.0958 8.07436C15.3196 7.77855 15.706 7.46142 15.9192 7.46142C16.0738 7.46142 16.1991 7.58667 16.1991 7.74124C16.1991 7.87449 16.1058 7.98642 15.9805 8.01573C15.8419 8.08502 15.1437 8.5967 15.3356 9.28693C15.3596 9.36954 15.3889 9.38553 15.3996 9.39086C15.5595 9.47347 16.0205 9.31358 16.3909 9.18566C16.9559 8.98845 17.5422 8.78591 18.0139 8.9618C18.5389 9.15901 18.8667 9.65469 18.8161 10.1664C18.7708 10.6061 18.419 11.1258 17.5582 11.2617C17.5422 11.2617 17.5289 11.2643 17.5129 11.2643L17.5102 11.267Z" fill="white"/>
<path d="M17.1318 8.62334C16.6068 8.62334 16.0871 8.37283 15.8073 7.98641C15.6341 7.74389 15.4635 7.33615 15.6554 6.76585C15.7913 6.35544 16.1564 5.86775 17.1132 5.86775C17.8567 5.86775 18.6082 6.16889 18.6402 6.18222C18.7521 6.22752 18.8241 6.34212 18.8161 6.46204C18.8134 6.51534 18.7175 7.75189 17.958 8.3595C17.7448 8.53006 17.4516 8.62334 17.1318 8.62334ZM17.1132 6.4274C16.359 6.4274 16.2311 6.81382 16.1884 6.94174C16.0951 7.21889 16.1218 7.45874 16.263 7.65595C16.4363 7.89846 16.7854 8.06103 17.1318 8.06103C17.3237 8.06103 17.4916 8.01039 17.6062 7.91978C17.9926 7.61065 18.1685 7.00037 18.2298 6.62994C17.9793 6.54999 17.5369 6.4274 17.1132 6.4274Z" fill="white"/>
<path d="M12.6227 8.87385C12.5721 8.87385 12.5188 8.86053 12.4708 8.82855C12.3402 8.74594 12.3029 8.57005 12.3855 8.43946C13.6141 6.52068 12.7053 4.21281 12.2603 3.31471C12.0177 3.73845 11.8499 4.26878 11.7966 4.48464C11.7592 4.63654 11.6073 4.72715 11.4554 4.68984C11.3062 4.65253 11.2129 4.49796 11.2502 4.34872C11.2609 4.30075 11.5434 3.19479 12.0817 2.59517C12.1403 2.52855 12.2256 2.4939 12.3162 2.5019C12.4042 2.50989 12.4841 2.55786 12.5294 2.63248C12.6147 2.7684 14.5974 6.01967 12.8545 8.74061C12.8012 8.82322 12.7106 8.86852 12.6174 8.86852L12.6227 8.87385Z" fill="white"/>
<path d="M10.4881 17.4737C10.3762 17.4737 10.2722 17.4071 10.2269 17.2978C10.2136 17.2632 9.88049 16.4077 10.8612 15.6402C11.3009 15.2965 11.8606 15.3657 12.4016 15.435C13.1478 15.5283 13.6195 15.5576 13.9126 14.9793C14.2351 14.3424 14.6028 13.9666 15.0026 13.8627C15.3517 13.7721 15.5942 13.9267 15.6209 13.9453L15.3037 14.409L15.3144 14.4143C15.3144 14.4143 15.2398 14.3744 15.1278 14.409C14.9972 14.449 14.7281 14.6089 14.4163 15.2298C13.9313 16.1892 13.0465 16.0773 12.3349 15.9893C11.8872 15.9334 11.4662 15.8801 11.2103 16.08C10.5574 16.5916 10.7466 17.0793 10.7493 17.0846C10.8079 17.2286 10.7386 17.3911 10.5947 17.4497C10.5601 17.4631 10.5254 17.4711 10.4881 17.4711V17.4737Z" fill="white"/>
<path d="M14.776 18.2333C14.776 18.2333 15.2984 16.04 14.776 15.9494C14.2537 15.8588 14.776 18.2333 14.776 18.2333Z" fill="white"/>
<path d="M14.776 18.2892C14.7494 18.2892 14.728 18.2706 14.7227 18.2439C14.6801 18.0494 14.3123 16.3225 14.5975 15.9654C14.6454 15.9067 14.7094 15.8801 14.7867 15.8934C14.856 15.9041 14.9119 15.944 14.9546 16.0107C15.2504 16.4584 14.848 18.172 14.832 18.2439C14.8266 18.2679 14.8027 18.2866 14.7787 18.2866L14.776 18.2892ZM14.7494 16.0027C14.7227 16.0027 14.704 16.0133 14.6854 16.0373C14.4988 16.2692 14.6587 17.3405 14.7787 17.9614C14.8986 17.3725 15.0532 16.3624 14.8613 16.072C14.8346 16.032 14.8053 16.0107 14.768 16.0027C14.7627 16.0027 14.7547 16.0027 14.7494 16.0027Z" fill="white"/>
<path d="M12.9532 13.7108C12.8093 13.7108 12.6867 13.6015 12.6733 13.4549C12.6733 13.4416 12.6121 12.874 12.2443 12.6155C11.8712 12.3516 11.1543 12.4503 11.0104 12.5435C10.8798 12.6261 10.7066 12.5888 10.624 12.4582C10.5414 12.3277 10.5787 12.1544 10.7093 12.0718C11.0211 11.872 11.9884 11.752 12.5667 12.1598C13.1504 12.5702 13.2277 13.3723 13.2303 13.407C13.2437 13.5615 13.1291 13.6975 12.9772 13.7108C12.9692 13.7108 12.9612 13.7108 12.9505 13.7108H12.9532Z" fill="white"/>
</svg>
