<svg width="406" height="120" viewBox="0 0 406 120" fill="none" xmlns="http://www.w3.org/2000/svg">
<path d="M174.5 74.2036L66.9238 104.32L68.2879 109.193L175.864 79.0762L174.5 74.2036Z" fill="#8FA4BC"/>
<path d="M169.31 87.8541L162.261 80.6284L68.1901 107.739L65.1777 116.442L169.31 87.8541Z" fill="#6A7B9B"/>
<path d="M104.141 57.3765C106.346 60.3494 115.856 74.4463 118.1 74.6826C120.62 74.9386 125.444 73.4422 125.444 73.4422C125.444 73.4422 126.724 76.1199 124.597 77.2027C122.471 78.2856 118.553 80.5104 117.214 82.0264C115.895 83.5621 114.28 79.1913 113.473 77.439C112.961 76.3167 101.857 69.3864 98.4313 66.8466C95.0055 64.3068 104.141 57.3765 104.141 57.3765Z" fill="#D6A092"/>
<path d="M124.46 73.3241C125.464 73.0878 127.984 71.7884 128.456 72.8319C128.909 73.8951 128.771 75.1354 127.492 76.2774C126.212 77.4193 116.761 83.0502 116.702 82.4005C116.643 81.7508 120.384 78.0493 121.723 77.0649C124.046 75.3717 124.46 73.3044 124.46 73.3044V73.3241Z" fill="#8FA4BC"/>
<path d="M63.4451 57.3962C63.7011 58.0657 64.6658 58.3413 65.6305 57.9869L85.9687 50.5447C86.9137 50.1903 87.5044 49.3634 87.2484 48.694C87.0122 48.0049 86.0278 47.7489 85.063 48.1033L64.7249 55.5455C63.7798 55.8999 63.1892 56.7268 63.4451 57.4159V57.3962Z" fill="#1E1E1E"/>
<path d="M81.1644 48.9894C82.0503 48.2412 84.2358 46.5086 84.9248 46.6071C85.6139 46.7055 87.5434 47.4537 87.9175 47.8868C88.2916 48.3396 88.5278 49.8753 88.5278 49.8753C88.5278 49.8753 88.3506 50.0525 88.1341 49.9344C87.8978 49.7966 87.3662 48.7334 86.8543 48.5365C85.929 48.1821 85.2202 47.8671 84.9052 48.2018C84.5901 48.5365 87.0118 49.1469 86.3227 49.4619C85.929 49.6588 85.8896 49.4028 84.9839 49.4816C84.0782 49.5603 83.8617 50.3872 80.9478 50.2297C80.554 50.2297 81.1644 48.9697 81.1644 48.9697V48.9894Z" fill="#EAC4B2"/>
<path d="M81.8143 47.7687C81.8143 47.7687 76.459 48.2609 75.6715 48.1822C74.8643 48.1231 76.0653 51.7655 76.2622 52.238C76.459 52.7105 83.0744 50.5842 83.0744 50.5842L81.8143 47.749V47.7687Z" fill="#4686D3"/>
<path d="M63.6221 68.6579C58.9166 59.3058 53.9551 49.5207 53.1479 48.1819C52.951 47.8866 52.8329 47.8275 52.0059 47.985C50.4702 48.3394 47.9108 49.9932 45.2725 50.7217L44.8394 49.1269C47.1626 48.4969 49.604 46.8824 51.6319 46.3705C52.6163 46.0752 53.9354 46.213 54.5851 47.3353C56.3768 50.3082 74.3326 86.279 74.3523 86.2987L72.8757 87.0469C72.8757 87.0469 68.367 78.0296 63.6615 68.6579H63.6221Z" fill="#2B2B2B"/>
<path d="M103.59 58.9712C105.893 62.0623 115.442 77.0452 117.766 76.7105C120.089 76.3561 125.523 75.4898 125.523 75.4898C125.523 75.4898 127.019 78.4234 124.814 79.5456C122.609 80.6679 119.065 82.2626 117.687 83.8574C116.309 85.4325 114.123 81.6326 113.277 79.8213C112.745 78.6596 101.227 71.4537 97.6834 68.8351C94.1394 66.1969 103.59 59.0106 103.59 59.0106V58.9712Z" fill="#EAC4B2"/>
<path d="M63.9175 61.0779C64.9413 64.5824 64.8035 69.977 69.9421 71.9459C75.0611 73.9344 91.3632 67.9098 94.7496 66.6694C98.136 65.429 95.419 67.9294 97.4666 69.0517C99.5339 70.1542 102.31 80.9238 102.31 80.9238L113.139 65.8818C113.139 65.8818 100.735 51.4699 97.0728 51.5487C90.5953 51.6865 73.7223 57.278 73.7223 57.278L63.9175 61.0779Z" fill="#6A7B9B"/>
<path d="M116.328 88.3265C116.328 88.3265 104.771 76.1787 103.137 74.1311C102.094 72.9301 101.759 72.9892 101.09 73.1073C100.794 73.1861 100.42 73.3239 100.007 73.5011C99.5932 73.6783 99.101 73.4814 98.9238 73.0483C98.7466 72.6348 98.9435 72.1426 99.3766 71.9654C99.7901 71.7882 100.223 71.611 100.715 71.4732C101.857 71.1385 103.314 71.5519 104.456 73.0876C105.185 73.9933 108.492 77.5766 111.564 80.8449C114.655 84.1329 117.529 87.1649 117.549 87.1846C117.864 87.5193 117.844 88.0509 117.51 88.3659C117.392 88.4643 117.273 88.5431 117.136 88.5627C116.86 88.6415 116.545 88.5627 116.328 88.3265Z" fill="#2B2B2B"/>
<path d="M62.9923 28.3165C62.0669 30.4232 62.9923 34.0852 64.9217 36.4872C65.6896 37.4322 68.2491 40.0902 69.5288 40.2871C71.1039 40.5233 71.8324 44.1263 69.2138 44.3035C66.9103 44.461 58.3261 37.9638 56.9676 38.3576C57.893 36.8416 58.838 32.4904 56.5541 30.0097C54.2703 27.5486 62.9923 28.3165 62.9923 28.3165Z" fill="#D6A092"/>
<path d="M69.8438 41.5668L64.3311 35.4634C65.2564 35.7981 67.1071 36.5266 67.7175 37.1369C69.391 38.8104 69.8438 39.9327 74.7462 43.4963C76.2229 44.5594 77.4632 49.3831 78.113 50.4266C81.8538 56.4316 79.0383 56.4316 79.4912 60.0739C79.5502 60.6252 70.8676 44.6185 70.8676 44.6185L69.8635 41.5471L69.8438 41.5668Z" fill="#4686D3"/>
<path d="M54.1722 28.9659C52.6365 24.477 54.6841 20.5196 58.4643 19.9093C62.1657 19.3186 65.3946 20.2833 66.2215 24.9495C66.3594 25.737 68.6826 34.7937 64.1739 35.3056C61.6145 35.6009 55.6882 33.4746 54.1722 28.9856V28.9659Z" fill="#EAC4B2"/>
<path d="M62.6571 22.1144C63.4053 22.7838 63.8581 22.8626 64.9016 23.1776C65.9451 23.4926 66.4964 24.9496 66.6145 26.249C67.1855 26.249 67.6974 23.8273 65.9451 21.7207C64.1928 19.5943 60.2551 18.4917 58.877 19.8109C61.023 21.2678 62.6571 22.1341 62.6571 22.1341V22.1144Z" fill="#6A6969"/>
<path d="M72.246 44.3819C74.5298 47.1186 80.082 56.825 81.7752 63.0071C76.6956 67.1023 65.1384 69.7209 64.8037 68.9924C64.469 68.2443 63.9374 61.2352 62.8152 59.286C61.693 57.3172 59.4878 49.5993 58.1687 47.7289C56.8693 45.8585 53.3647 41.4089 53.3647 41.4089L57.4993 36.4277C57.4993 36.4277 69.9424 41.6649 72.246 44.4016V44.3819Z" fill="#2B55B2"/>
<path d="M67.9145 105.219C67.8161 104.766 68.072 104.313 68.5249 104.215C70.3559 103.802 89.749 96.95 95.3011 93.5635C95.9509 93.1895 96.4037 92.7957 96.5415 92.6382C96.4824 87.7555 99.6917 86.0032 99.8689 85.9441L103.255 84.4478C102.566 82.7152 100.755 78.2066 98.8254 73.501C96.384 67.496 93.7064 61.0973 93.037 59.8372C92.8991 59.601 92.7416 59.5025 92.2888 59.4238C91.836 59.3647 91.1666 59.4238 90.3987 59.6207C88.6464 60.0341 86.4807 60.9989 84.8466 61.5895C84.4134 61.747 83.9409 61.5108 83.7834 61.0776C83.6259 60.6445 83.8621 60.1719 84.2953 60.0144C85.831 59.4632 88.0361 58.4787 90.0049 58.0062C90.8712 57.7896 91.6981 57.6715 92.4857 57.77C93.2535 57.8487 94.0805 58.2622 94.4939 59.0497C96.0296 61.9242 105.086 84.5266 105.086 84.5659C105.244 84.9794 105.067 85.4519 104.653 85.6291L100.578 87.4208C100.578 87.4208 100.578 87.4208 100.519 87.4601C100.519 87.4601 100.381 87.5586 100.263 87.6373C100.046 87.8145 99.731 88.0902 99.416 88.4839C98.8057 89.2912 98.1756 90.5906 98.1953 92.6973C98.1953 93.2485 97.9197 93.5439 97.6834 93.8195C97.4275 94.0951 97.1125 94.3314 96.7187 94.607C95.9312 95.1189 94.8877 95.7096 93.6079 96.3199C91.0681 97.5603 87.7014 98.9582 84.2559 100.317C77.3453 103.034 70.2377 105.475 68.9186 105.81C68.4658 105.908 68.0326 105.652 67.9145 105.199V105.219Z" fill="#2B2B2B"/>
<path d="M61.2202 72.3398C56.18 62.3184 50.8641 51.8441 49.9781 50.4069C49.7418 50.0721 49.5843 49.9934 48.6984 50.1706C47.0445 50.5447 44.2881 52.3166 41.4727 53.1042L41.0396 51.5094C43.54 50.84 46.1585 49.1074 48.3046 48.5561C49.3481 48.2608 50.7263 48.3986 51.3957 49.5602C53.3055 52.7301 72.5608 91.2998 72.5608 91.3194L71.0841 92.0676C71.0841 92.0676 66.2604 82.4203 61.2005 72.3792L61.2202 72.3398Z" fill="#2B2B2B"/>
<path d="M75.4347 105.731L67.1064 71.2169L67.4215 71.1382L75.7497 105.652L75.4347 105.731Z" fill="#8FA4BC"/>
<path d="M69.2725 106.046L73.2495 70.7642L73.5842 70.8035L69.6072 106.085L69.2725 106.046Z" fill="#8FA4BC"/>
<path d="M63.3857 104.254L79.1759 72.4575L79.4712 72.5953L63.6811 104.392L63.3857 104.254Z" fill="#8FA4BC"/>
<path d="M58.4438 100.553L84.1766 76.0605L84.4129 76.3165L58.6801 100.789L58.4438 100.553Z" fill="#8FA4BC"/>
<path d="M55.0967 95.3751L87.6417 81.1797L87.7598 81.475L55.2148 95.6704L55.0967 95.3751Z" fill="#8FA4BC"/>
<path d="M53.7189 89.7045L53.6992 89.3698L89.1384 87.145L89.1581 87.4797L53.7189 89.7045Z" fill="#8FA4BC"/>
<path d="M54.3486 83.5616L54.4471 83.2466L88.5081 93.2877L88.4096 93.6027L54.3486 83.5616Z" fill="#8FA4BC"/>
<path d="M57.0459 78.0099L57.2428 77.7539L85.8107 98.8402L85.6138 99.0962L57.0459 78.0099Z" fill="#8FA4BC"/>
<path d="M61.4761 73.7177L61.7517 73.5405L81.3811 103.132L81.1055 103.309L61.4761 73.7177Z" fill="#8FA4BC"/>
<path d="M68.9181 88.9957C69.2528 90.3739 70.6507 91.2205 72.0289 90.8858C73.4071 90.5511 74.2537 89.1729 73.919 87.7947C73.5843 86.4165 72.2061 85.5699 70.8279 85.9046C69.4497 86.2393 68.6031 87.6175 68.9378 89.0154L68.9181 88.9957Z" fill="#6A7B9B"/>
<path d="M48.4618 93.9179C45.4101 81.2386 53.2067 68.4805 65.8861 65.4288C78.5654 62.377 91.3235 70.154 94.3752 82.8333C97.427 95.5127 89.6303 108.271 76.9707 111.323C64.2913 114.374 51.5332 106.597 48.4815 93.9179H48.4618ZM50.4897 93.4257C53.3051 104.983 64.9016 112.071 76.4784 109.314C88.0356 106.499 95.1234 94.9024 92.367 83.3256C89.5516 71.7684 77.9354 64.6806 66.3783 67.437C54.8212 70.2524 47.7333 81.8686 50.4897 93.4257Z" fill="#6A7B9B"/>
<path d="M53.6989 92.6577C51.3363 82.8726 57.361 73.048 67.1461 70.6854C76.9313 68.3228 86.7558 74.3278 89.1184 84.1129C91.481 93.8981 85.4761 103.723 75.6909 106.085C65.9058 108.448 56.0615 102.423 53.6989 92.6577ZM54.5061 92.4608C56.7703 101.793 66.142 107.523 75.494 105.278C84.8264 103.014 90.5557 93.6421 88.3112 84.3098C86.047 74.9775 76.6753 69.2482 67.3233 71.4927C57.991 73.7568 52.2617 83.1285 54.5061 92.4805V92.4608Z" fill="#6A7B9B"/>
<path d="M103.118 98.4267C103.846 101.419 106.858 103.25 109.851 102.542C112.844 101.813 114.694 98.8008 113.966 95.8082C113.237 92.8155 110.225 90.9648 107.232 91.6933C104.24 92.4218 102.389 95.4341 103.118 98.4267ZM106.957 94.3119C108.493 93.4456 110.461 93.9772 111.347 95.5325C112.233 97.0879 111.682 99.0371 110.127 99.9231C108.571 100.809 106.622 100.258 105.736 98.7024C104.87 97.147 105.401 95.1781 106.957 94.3119Z" fill="#1E1E1E"/>
<path d="M108.709 86.8105L106.208 87.4209C106.208 87.4209 108.807 93.2684 107.862 96.4382C107.37 98.1708 108.67 98.2298 109.083 97.5408C109.496 96.8517 110.717 93.6227 109.792 90.7482C108.886 87.8737 108.689 86.8105 108.689 86.8105H108.709Z" fill="#6A7B9B"/>
<path d="M57.6374 34.8135C59.3307 35.7388 62.0083 36.5067 63.4849 37.6289C64.9615 38.7512 73.6441 44.8546 72.7975 44.3821C71.7541 43.7914 64.1937 41.35 62.1067 40.5231C60.0394 39.6765 56.6924 38.633 56.3577 37.7667C56.023 36.9201 57.6571 34.8332 57.6571 34.8332L57.6374 34.8135Z" fill="#4686D3"/>
<path d="M71.1829 53.8918C72.0492 53.4586 73.8605 52.5726 74.7071 52.1592C75.8687 51.5882 76.1641 51.8048 77.1091 51.1748C78.0541 50.5644 78.3298 50.7416 77.5619 51.5095C77.0894 51.982 76.3019 52.3954 76.3019 52.3954C76.3019 52.3954 77.621 51.982 78.192 51.8639C78.7629 51.7457 79.767 51.4504 80.1411 51.7457C80.5152 52.0214 79.4914 52.3167 78.9992 52.5726C80.2789 52.0214 80.3577 52.1986 80.4758 52.612C80.594 53.0255 79.1173 53.3011 78.7432 53.4783C79.8064 53.183 80.4561 52.927 80.594 53.4192C80.6924 53.7933 79.4914 54.2462 79.0386 54.384C80.3774 54.1083 80.4365 53.6358 80.5743 54.128C80.6727 54.5218 78.6645 55.3093 77.877 55.5653C76.9516 55.8803 74.3724 56.0969 73.2895 56.3922C72.2067 56.7072 70.9663 56.9041 70.9663 56.9041L71.2026 53.9115L71.1829 53.8918Z" fill="#D6A092"/>
<path d="M55.491 40.0703C53.9553 39.9325 52.5377 41.9014 52.6558 43.4174C52.774 44.9334 55.2744 56.5496 61.4369 60.4282C62.3425 60.9991 73.6437 56.8843 74.6675 56.4314C75.7701 54.9154 73.624 52.6512 73.624 52.6512C73.624 52.6512 64.4098 53.0056 63.7995 51.9425C63.5435 51.4896 60.1374 47.9063 60.1177 46.1344C60.0981 44.3427 58.6214 40.3263 55.4713 40.0703H55.491Z" fill="#4686D3"/>
<path d="M62.8938 21.7601C64.3902 22.9021 63.9176 23.9652 62.3229 24.7922C60.9447 25.5206 59.5862 25.5009 59.0743 27.962C59.0743 27.962 56.9479 27.7651 58.0505 29.793C58.5821 30.7774 58.7986 30.1474 58.9955 30.994C59.1136 31.5059 57.5583 35.6208 57.5583 35.6208C57.5583 35.6208 50.8642 31.7422 52.8133 24.7922C54.1522 20.0472 57.3614 19.4369 58.8577 19.7716C60.354 20.1063 62.8741 21.7404 62.8741 21.7404L62.8938 21.7601Z" fill="#6A6969"/>
<path d="M64.567 35.168C65.4727 35.5814 67.2053 35.9949 68.0125 37.1368C68.8197 38.2787 72.5605 46.036 72.5605 46.036C72.5605 46.036 67.3825 39.4797 66.3784 38.2984C65.3742 37.1171 63.8188 35.4042 63.8188 35.4042L64.5473 35.1877L64.567 35.168Z" fill="#2B55B2"/>
<path d="M113.848 81.0026C114.832 81.1207 116.368 81.3767 117.667 80.786C121.979 78.8566 123.515 76.3364 123.712 75.6867C123.909 75.037 128.102 74.3282 128.654 75.1551C129.205 75.982 128.654 77.3012 127.374 78.4431C126.094 79.585 122.019 80.5301 121.073 82.2036C120.187 83.759 117.136 85.8066 116.053 84.7631C114.97 83.7196 113.828 81.0026 113.828 81.0026H113.848Z" fill="#6A7B9B"/>
<path d="M169.645 81.8387L62.0269 111.805L63.8806 118.463L171.499 88.496L169.645 81.8387Z" fill="#8FA4BC"/>
<path d="M399.941 82.9909C398.405 73.3633 392.38 59.6404 392.38 59.6404C387.852 49.1662 336.13 34.0848 336.13 34.0848L304.846 5.98942C295.198 -1.23624 184.037 -2.31911 168.523 9.96648C165.294 9.96648 151.295 40.1292 146.767 72.4379C146.334 75.6078 145.271 79.8605 143.558 84.0541C142.672 86.2198 137.927 85.2945 138.97 87.854C142.691 96.9697 158.423 99.5686 158.423 99.5686C158.423 99.5686 168.424 99.5686 171.929 99.6277C171.752 98.5448 171.673 97.4422 171.673 96.32C171.673 84.6251 181.143 76.4544 192.818 76.4544C204.494 76.4544 213.964 84.6251 213.964 96.32C213.964 97.5997 213.846 98.8401 213.629 100.061C242.748 99.9624 303.507 100.061 334.457 100.277C334.142 98.8007 334.142 97.8951 334.142 96.32C334.142 84.6251 343.612 76.4544 355.287 76.4544C366.963 76.4544 376.433 84.6251 376.433 96.32C376.433 97.9541 376.236 99.5489 375.881 101.065C387.557 101.065 393.759 100.907 394.822 100.199C398.385 97.7769 403.819 93.2289 404.686 88.8778C404.883 87.0467 400.236 84.7432 399.941 82.9515V82.9909Z" fill="#00242A"/>
<path d="M334.752 96.5759C334.752 85.511 343.73 76.5527 354.795 76.5527C365.86 76.5527 374.838 85.511 374.838 96.5759C374.838 107.641 365.879 116.599 354.795 116.599C343.71 116.599 334.752 107.641 334.752 96.5759Z" fill="#232121"/>
<path d="M341.21 96.5757C341.21 89.0744 347.294 82.9907 354.795 82.9907C362.296 82.9907 368.38 89.0744 368.38 96.5757C368.38 104.077 362.296 110.161 354.795 110.161C347.294 110.161 341.21 104.077 341.21 96.5757ZM343.258 96.5757C343.258 102.955 348.436 108.113 354.815 108.113C361.194 108.113 366.352 102.955 366.352 96.5757C366.352 90.1967 361.194 85.0383 354.815 85.0186C348.436 85.0186 343.277 90.1967 343.258 96.5757Z" fill="#898989"/>
<path d="M366.903 99.2732C361.962 98.9778 358.319 97.8753 358.319 96.5758C358.319 95.2764 361.981 94.1738 366.903 93.8785C366.588 92.461 366.017 91.1221 365.269 89.9015C361.568 93.1697 358.201 95.0008 357.295 94.0754C356.37 93.15 358.201 89.7833 361.469 86.1016C360.682 85.6094 359.835 85.1762 358.91 84.8612C358.437 84.7037 357.965 84.5659 357.492 84.4478C357.197 89.3699 356.114 93.0319 354.795 93.0319C353.476 93.0319 352.393 89.3699 352.098 84.4478C350.7 84.7628 349.341 85.314 348.14 86.1016C351.409 89.803 353.24 93.15 352.314 94.0754C351.389 95.0008 348.022 93.1697 344.34 89.9015C343.848 90.689 343.415 91.5356 343.1 92.461C342.942 92.9335 342.805 93.406 342.687 93.8785C347.609 94.1738 351.29 95.2567 351.29 96.5758C351.29 97.895 347.628 98.9778 342.687 99.2732C343.002 100.691 343.573 102.03 344.34 103.25C348.042 99.9622 351.389 98.1509 352.314 99.0763C353.24 100.002 351.409 103.368 348.14 107.07C348.928 107.562 349.774 107.995 350.7 108.31C351.172 108.468 351.645 108.605 352.117 108.724C352.413 103.782 353.515 100.12 354.815 100.12C356.114 100.12 357.217 103.782 357.512 108.724C358.929 108.409 360.268 107.838 361.469 107.07C358.201 103.388 356.39 100.021 357.295 99.096C358.221 98.1706 361.587 99.9819 365.289 103.27C365.781 102.482 366.214 101.636 366.529 100.71C366.687 100.238 366.825 99.7654 366.923 99.2928L366.903 99.2732Z" fill="#898989"/>
<path d="M172.657 96.576C172.657 85.5111 181.635 76.5332 192.68 76.5332C203.726 76.5332 212.723 85.4914 212.723 96.576C212.723 107.661 203.745 116.599 192.68 116.599C181.615 116.599 172.657 107.641 172.657 96.576Z" fill="#232121"/>
<path d="M179.095 96.5762C179.095 89.0749 185.179 82.9912 192.68 82.9912C200.182 82.9912 206.265 89.0749 206.265 96.5762C206.265 104.078 200.182 110.161 192.68 110.161C185.179 110.161 179.095 104.078 179.095 96.5762ZM181.143 96.5762C181.143 102.955 186.321 108.114 192.7 108.114C199.079 108.114 204.237 102.955 204.237 96.5762C204.237 90.1972 199.079 85.0388 192.7 85.0191C186.321 85.0191 181.163 90.1972 181.143 96.5762Z" fill="#898989"/>
<path d="M204.789 99.2732C199.847 98.9778 196.205 97.8753 196.205 96.5758C196.205 95.2764 199.867 94.1738 204.789 93.8785C204.474 92.461 203.903 91.1221 203.135 89.9015C199.453 93.1697 196.086 95.0008 195.161 94.0754C194.236 93.15 196.067 89.7833 199.335 86.1016C198.547 85.6094 197.701 85.1762 196.776 84.8612C196.303 84.7037 195.83 84.5659 195.358 84.4478C195.063 89.3699 193.96 93.0319 192.661 93.0319C191.361 93.0319 190.259 89.3699 189.963 84.4478C188.565 84.7628 187.207 85.314 186.006 86.1016C189.274 89.803 191.086 93.15 190.18 94.0754C189.255 95.0008 185.888 93.1697 182.206 89.9015C181.714 90.689 181.281 91.5356 180.966 92.461C180.808 92.9335 180.67 93.406 180.552 93.8785C185.494 94.1738 189.156 95.2567 189.156 96.5758C189.156 97.895 185.494 98.9778 180.552 99.2732C180.867 100.691 181.438 102.03 182.206 103.25C185.888 99.9622 189.255 98.1509 190.18 99.0763C191.105 100.002 189.274 103.368 186.006 107.07C186.793 107.562 187.64 107.995 188.565 108.31C189.038 108.468 189.51 108.605 189.963 108.724C190.259 103.782 191.361 100.12 192.661 100.12C193.96 100.12 195.063 103.782 195.358 108.724C196.776 108.409 198.114 107.838 199.315 107.07C196.047 103.388 194.216 100.021 195.141 99.096C196.067 98.1706 199.433 99.9819 203.115 103.27C203.607 102.482 204.041 101.636 204.356 100.71C204.513 100.238 204.651 99.7654 204.749 99.2928L204.789 99.2732Z" fill="#898989"/>
<path d="M196.343 76.4151H145.822C143.44 77.6161 138.518 78.3643 138.341 79.4471C138.242 80.0181 138.163 80.5497 138.104 81.0813C137.474 86.535 144.641 90.1183 149.15 91.8115H172.362C172.362 91.398 172.323 90.9846 172.323 90.5514C172.323 85.3931 181.045 75.2535 196.343 76.4151Z" fill="#231815"/>
<path d="M353.614 76.4149H194.295C206.246 76.3164 210.46 85.0384 213.039 90.5512C213.216 90.9253 214.575 91.3781 214.555 91.8113H334.772V90.5512C334.772 85.3928 342.412 76.7496 353.614 76.4149Z" fill="#231815"/>
<path d="M403.958 80.274C402.717 78.8761 399.626 76.7498 397.677 76.4151H352.748C364.817 74.9188 377.063 85.3733 377.063 90.5514C377.063 90.9648 377.063 91.3783 377.044 91.8114H400.493C402.048 89.3307 404.883 88.7794 405.316 85.8655C405.454 84.3495 405.277 82.7744 403.938 80.2937L403.958 80.274Z" fill="#231815"/>
<path opacity="0.63" d="M276.671 58.9905C276.671 59.66 276.139 60.1915 275.47 60.1915H265.842C265.173 60.1915 264.641 59.6403 264.641 58.9905C264.641 58.3211 265.192 57.7896 265.842 57.7896H275.47C276.139 57.7896 276.671 58.3211 276.671 58.9905Z" fill="#949495"/>
<path opacity="0.63" d="M256.077 58.9905C256.077 59.66 255.545 60.1915 254.876 60.1915H245.248C244.579 60.1915 244.047 59.6403 244.047 58.9905C244.047 58.3211 244.599 57.7896 245.248 57.7896H254.876C255.545 57.7896 256.077 58.3211 256.077 58.9905Z" fill="#949495"/>
<g style="mix-blend-mode:multiply">
<path d="M372.692 75.9619C372.692 72.4968 373.263 64.5229 376.511 64.5229C379.76 64.5229 393.857 64.7198 393.857 64.7198C393.857 64.7198 398.818 75.5288 397.421 75.5288C393.148 75.5288 372.692 75.9619 372.692 75.9619Z" fill="#C69320"/>
</g>
<path d="M373.893 74.6234C373.893 71.8079 374.425 65.3501 377.437 65.3501C380.449 65.3501 393.975 65.4289 393.975 65.4289C393.975 65.4289 397.716 74.4265 397.106 74.4265C393.129 74.4265 373.893 74.643 373.893 74.643V74.6234Z" fill="#E5E5E5"/>
<path d="M382.595 74.111L375.606 74.1898C374.168 74.1898 374.601 72.1422 375.035 69.7992C375.428 67.6729 376.255 66.0781 377.456 66.0781H382.772C383.087 66.0781 382.989 74.1307 382.595 74.1307V74.111Z" fill="#F28C30"/>
<path d="M178.032 81.5933H138.222C138.222 82.302 137.868 83.5424 137.69 84.6253C137.592 85.1962 137.513 85.7278 137.454 86.2594C136.824 91.7131 147.869 95.2964 152.378 96.9896H171.712C171.712 96.5762 171.673 96.1627 171.673 95.7296C171.673 90.5712 174.37 85.59 178.032 81.5933Z" fill="#3E3A39"/>
<path d="M340.481 81.5933H207.348C211.66 86.0232 213.983 90.5515 213.983 95.7296C213.983 96.143 213.963 96.5565 213.944 96.9896H334.161C334.161 96.5959 334.161 96.1824 334.161 95.7296C334.161 90.5712 336.406 85.3734 340.501 81.5933H340.481Z" fill="#3E3A39"/>
<path d="M405.433 85.1569C405.394 84.3103 405.473 81.928 403.543 81.5933H369.561C373.44 85.8066 376.432 90.5515 376.432 95.7296C376.432 96.143 376.432 96.5565 376.413 96.9896H399.035C401.614 95.4145 404.528 91.3587 405.374 88.4645C405.512 86.9485 405.532 86.5744 405.453 85.1569H405.433Z" fill="#3E3A39"/>
<path opacity="0.57" d="M150.251 59.9553C151.787 59.1874 153.697 60.8215 154.13 64.7002C154.563 68.5788 153.598 74.8791 153.598 74.8791H145.684C145.684 74.8791 147.672 61.2547 150.271 59.9553H150.251Z" fill="#CE0000"/>
<path d="M154.76 75.1942C154.76 76.0015 153.795 76.6512 152.614 76.6512H147.003C145.822 76.6512 144.857 76.0015 144.857 75.1942C144.857 74.387 145.822 73.7373 147.003 73.7373H152.614C153.795 73.7373 154.76 74.387 154.76 75.1942Z" fill="#E5E5E5"/>
<g style="mix-blend-mode:soft-light">
<path d="M208.333 42.984C207.801 47.7682 204.159 51.7847 200.201 51.7847H170.708C166.751 51.7847 164.664 47.7682 166.022 42.984L172.322 20.6769C173.405 16.8574 176.989 13.8647 180.355 13.8647H205.478C208.844 13.8647 211.246 16.8574 210.833 20.6769L208.352 42.984H208.333Z" fill="#38A6DF"/>
</g>
<g style="mix-blend-mode:soft-light">
<path d="M254.896 42.984C255.27 47.7682 252.356 51.7847 248.398 51.7847H218.925C214.967 51.7847 212.132 47.7682 212.585 42.984L214.672 20.6769C215.026 16.8574 218.039 13.8647 221.425 13.8647H246.548C249.914 13.8647 252.887 16.8574 253.183 20.6769L254.915 42.984H254.896Z" fill="#38A6DF"/>
</g>
<g style="mix-blend-mode:soft-light">
<path d="M323.923 44.9922C321.955 41.6255 300.829 17.9403 294.43 15.0461C293.229 14.2979 291.89 13.8647 290.571 13.8647H264.897C261.452 13.8647 258.952 16.8574 259.326 20.6769L261.511 42.984C261.984 47.7682 265.646 51.7847 269.701 51.7847L320.793 51.4894C320.793 51.4894 326.542 49.5205 323.904 45.0119L323.923 44.9922Z" fill="#38A6DF"/>
</g>
<g style="mix-blend-mode:multiply" opacity="0.47">
<path d="M330.105 47.9063C330.775 44.0276 302.797 16.07 297.521 12.1914C292.225 8.3128 259.857 9.12002 255.23 9.12002C255.23 9.12002 256.785 18.8067 257.435 33.0415C258.105 47.2565 260.506 100.258 260.506 100.258H330.085C330.085 100.258 329.436 51.7849 330.085 47.9063H330.105ZM329.003 98.4662H261.963C261.963 98.4662 259.207 47.8669 258.577 34.1637C257.947 20.4606 256.707 10.1241 256.707 10.1241C261.117 10.1241 291.831 9.12002 296.871 12.8411C301.911 16.5819 329.16 44.2442 329.022 48.0244C328.806 53.7144 329.022 98.4465 329.022 98.4465L329.003 98.4662Z" fill="#D69034"/>
</g>
<path d="M32.8493 30.1079C33.2824 31.8602 35.3497 41.98 35.3497 41.98L46.0799 45.4846C46.0799 45.4846 50.057 46.2327 50.2735 47.1187C50.2735 47.1187 50.2735 47.1581 50.2735 47.1778C50.7264 47.8078 51.5533 48.9891 51.2186 49.3632C51.0808 49.5207 50.8445 49.6782 50.5098 49.3632C50.2932 49.1466 50.0176 48.9104 49.801 48.7332C49.801 48.7332 49.801 48.7332 49.801 48.7529C50.2145 49.186 50.8839 49.9342 50.5886 50.1901C50.2735 50.4658 49.8995 50.3279 49.5648 50.0917C49.742 50.3279 49.8404 50.5642 49.7223 50.6823C49.486 50.9383 48.7969 50.4461 48.4425 50.1704C48.4425 50.1704 48.4425 50.1704 48.4228 50.1704C48.6591 50.4067 48.9544 50.8005 48.6 50.8792C48.2653 50.958 47.5565 50.6626 47.0643 50.3673C46.3359 50.0917 46.2571 48.7725 44.4458 48.3985C40.5475 47.5716 31.9633 46.1343 31.0576 44.8152C29.6597 42.8266 29.8172 35.7388 28.38 29.8126C28.0453 28.4344 32.8493 30.0882 32.8493 30.0882V30.1079Z" fill="#D6A092"/>
<path d="M14.2834 115.201C14.3424 115.476 14.559 116.914 14.559 116.914C14.559 116.914 14.8937 117.445 17.3351 117.386C18.7329 117.347 23.7732 118.095 25.0923 117.583C26.2539 117.13 26.1358 115.516 25.9586 115.555C25.7814 115.614 14.2637 115.181 14.2637 115.181L14.2834 115.201Z" fill="#6A7B9B"/>
<path d="M14.9525 110.613C14.9525 112.976 13.3184 115.476 15.0313 116.264C16.5867 116.973 16.882 115.673 19.7565 116.599C21.3906 117.13 23.6351 117.111 24.7574 116.933C25.604 116.815 27.2381 115.437 24.5605 114.65C21.686 113.803 18.2405 110.85 17.2364 110.85C16.2323 110.85 14.9525 110.594 14.9525 110.594V110.613Z" fill="#6A7B9B"/>
<path d="M19.6579 53.6943C19.3232 55.3875 17.9647 66.5115 18.6537 69.5435C19.3232 72.5756 16.9212 80.7069 16.2321 85.7865C15.5627 90.8464 11.369 109.944 12.0384 113.311C17.0984 113.311 21.3314 113.134 21.3314 113.134C21.3314 113.134 21.1542 99.6669 24.0681 91.9884C25.9188 87.1253 25.8794 78.1277 28.0845 69.2088C29.1477 64.8971 29.7187 59.5418 29.7187 59.5418L19.6579 53.714V53.6943Z" fill="#2B2B2B"/>
<path d="M0.875164 112.72C0.79641 112.996 0.304199 114.354 0.304199 114.354C0.304199 114.354 0.343576 114.984 2.52899 116.107C3.76937 116.756 7.84487 119.788 9.24275 119.985C10.4831 120.162 11.1525 118.666 10.9753 118.627C10.7981 118.587 0.875164 112.72 0.875164 112.72Z" fill="#6A7B9B"/>
<path d="M3.67122 108.999C2.54898 111.066 -0.0892698 112.504 1.05266 114C2.07646 115.359 2.96244 114.374 5.02973 116.54C6.21103 117.78 8.19957 118.843 9.26274 119.237C10.0503 119.533 12.1569 119.119 10.1684 117.131C8.06175 115.024 6.42761 110.771 5.54163 110.299C4.65565 109.806 3.65154 108.979 3.65154 108.979L3.67122 108.999Z" fill="#8FA4BC"/>
<path d="M15.1494 54.5015C14.8147 56.1947 12.2355 63.5188 13.3184 68.2637C14.0075 71.2957 12.1764 80.4902 10.7786 85.4123C9.65632 89.35 0.0877363 106.636 0.757143 110.023C5.40362 113.153 9.38068 113.035 9.38068 113.035C9.38068 113.035 17.7286 93.6224 19.914 90.8857C23.1626 86.8299 23.1035 82.4197 26.6474 70.1144C29.2857 60.9987 29.7385 58.8132 29.7385 58.8132L15.1494 54.5212V54.5015Z" fill="#2B2B2B"/>
<path style="mix-blend-mode:multiply" d="M13.1413 64.9957L13.4564 70.666L11.645 82.42L29.5418 66.4133L20.2882 59.6602L13.1413 64.9957Z" fill="url(#paint0_linear_413_21790)"/>
<path d="M33.8536 34.7932C34.1096 34.9901 33.322 33.5332 32.5345 28.4339C32.0423 24.9884 34.5624 20.8144 36.5903 20.1844C36.5903 20.1844 31.8454 11.7381 30.6247 14.8291C27.5139 22.7045 25.8798 22.8423 24.8757 24.3583C24.2063 24.7127 34.2868 37.7859 33.8536 34.7735V34.7932Z" fill="#EAC4B2"/>
<path style="mix-blend-mode:multiply" d="M33.4396 23.5119C33.0064 23.8072 27.3361 26.5242 26.5289 26.8196L25.7217 23.2363L29.1081 19.0229L35.4675 20.8934C33.8924 21.9959 34.9752 22.4881 33.4396 23.5119Z" fill="url(#paint1_linear_413_21790)"/>
<path d="M39.2674 19.6532C39.3265 19.3185 38.9524 19.0626 38.8342 17.3891C38.9327 16.9362 38.9918 16.5818 39.0114 16.4637C39.8384 11.6991 38.283 8.33237 34.4831 7.68265C30.6832 7.01325 27.5134 8.33237 26.6668 13.097C25.8399 17.8616 28.3009 20.8739 30.3092 22.4293C30.9786 22.9412 34.5028 24.4178 35.3888 24.0831C36.5701 23.6106 37.4167 22.0158 38.0073 20.3817C38.4011 20.3423 39.169 20.3226 39.2871 19.6729L39.2674 19.6532Z" fill="#EAC4B2"/>
<path d="M25.7027 10.0057C27.8684 5.81202 33.6371 6.16641 37.5157 8.70622C38.382 9.27719 38.7364 10.0253 38.8939 10.616C40.7052 12.388 39.0711 12.8408 37.9489 13.0574C36.8069 13.2543 32.318 15.42 32.0817 15.7744C31.8651 16.1288 31.4911 14.4356 30.7232 15.105C29.6797 16.0106 30.1326 18.0189 30.1326 18.0189L27.9865 20.3027C27.9865 20.3027 22.6706 15.9122 25.683 10.045L25.7027 10.0057Z" fill="#A0593A"/>
<path d="M25.7024 10.0058C24.1076 9.47419 20.7015 9.71045 19.4612 13.8056C18.2208 17.8812 19.5005 20.0666 19.5005 20.0666L23.7533 21.1101C23.7533 21.1101 24.6589 12.1124 25.4071 12.0534C26.1749 11.9943 25.6827 10.0058 25.6827 10.0058H25.7024Z" fill="#A0593A"/>
<path d="M16.4093 65.7045L18.8703 62.5543L20.2879 66.3345C25.84 67.1417 30.1715 67.6339 30.1715 67.6339C30.1715 67.6339 31.215 55.1121 32.2191 48.6346C32.3569 47.7289 32.7704 44.6969 33.5382 44.4016C34.6802 43.9684 35.6252 40.1095 35.3299 38.6919C34.6802 35.6009 34.1486 33.061 33.7154 30.9938C33.7154 30.9938 29.2461 26.3079 28.5177 25.5401C26.5685 23.5121 26.2732 23.1971 26.1944 22.7246C24.7769 23.9256 23.064 26.4063 22.2961 27.1742C19.9729 30.1865 18.0828 34.8133 17.4528 37.4319C15.2673 46.4492 12.6488 55.9193 10.1483 64.3066C10.0499 64.6413 13.8695 65.291 16.4093 65.7242V65.7045Z" fill="#141451"/>
<path d="M25.3482 52.8084C23.8913 52.5721 19.6976 51.3712 19.3236 51.1152C18.9692 50.8593 16.5672 57.002 16.9609 57.3761C17.6304 58.0062 23.9503 60.231 24.285 59.1087C24.6197 58.0062 25.3482 52.8084 25.3482 52.8084Z" fill="#1C3584"/>
<path d="M25.7219 23.2363C25.7219 23.2363 26.1353 23.9254 26.9622 24.8705C27.7891 25.8155 33.105 31.0133 33.105 31.0133L33.8729 31.7614L34.2076 33.2381L33.0853 31.9977C33.0853 31.9977 25.21 24.5948 25.21 23.827C25.21 23.4726 25.6825 23.2363 25.6825 23.2363H25.7219Z" fill="#1C3584"/>
<path d="M28.439 30.1665C28.7934 32.0369 30.4472 42.9246 30.4472 42.9246L41.6499 47.2561C41.6499 47.2561 45.8436 48.2799 46.0207 49.225C46.0207 49.225 46.0207 49.2643 46.0207 49.284C46.4736 49.9731 47.2808 51.2922 46.9067 51.6663C46.7492 51.8238 46.4933 51.9813 46.1586 51.6269C45.942 51.3907 45.6467 51.115 45.4498 50.9182C45.4498 50.9182 45.4498 50.9378 45.4498 50.9575C45.8632 51.4301 46.5326 52.2767 46.1979 52.5326C45.8436 52.8083 45.4498 52.6507 45.1151 52.3751C45.2726 52.6311 45.371 52.887 45.2332 53.0248C44.9773 53.2808 44.2685 52.7295 43.9141 52.4145C43.9141 52.4145 43.9141 52.4145 43.8944 52.4145C44.111 52.6901 44.4063 53.1036 44.0322 53.1823C43.6778 53.2414 42.9494 52.9067 42.4178 52.5523C41.6499 52.2176 41.6499 50.8197 39.7401 50.3078C35.6449 49.225 26.6079 47.197 25.7023 45.7598C24.3438 43.5744 24.8754 36.0534 23.6941 29.6743C23.4184 28.1977 28.439 30.2256 28.439 30.2256V30.1665Z" fill="#EAC4B2"/>
<path d="M28.1439 28.7492C29.6206 29.2414 31.3138 39.6566 31.6288 41.7239C26.3326 43.6337 23.4581 44.2243 23.4581 44.2243C23.4581 44.2243 20.6032 30.9149 22.7296 29.0839C26.5885 25.7172 28.1439 28.7492 28.1439 28.7492Z" fill="#1C3584"/>
<defs>
<linearGradient id="paint0_linear_413_21790" x1="19.1463" y1="86.653" x2="22.6509" y2="53.1827" gradientUnits="userSpaceOnUse">
<stop stop-color="white"/>
<stop offset="0.12" stop-color="#F9F9F9"/>
<stop offset="0.27" stop-color="#E9E9E9"/>
<stop offset="0.44" stop-color="#CFCFCF"/>
<stop offset="0.62" stop-color="#ABABAB"/>
<stop offset="0.81" stop-color="#7D7D7D"/>
<stop offset="1" stop-color="#474747"/>
</linearGradient>
<linearGradient id="paint1_linear_413_21790" x1="28.3305" y1="27.8071" x2="33.206" y2="14.4078" gradientUnits="userSpaceOnUse">
<stop stop-color="white"/>
<stop offset="0.1" stop-color="#F3F2F1"/>
<stop offset="0.71" stop-color="#B3A6A1"/>
</linearGradient>
</defs>
</svg>
