<svg width="408" height="173" viewBox="0 0 408 173" fill="none" xmlns="http://www.w3.org/2000/svg">
<path d="M60.2663 103.748L55.5119 87.5267L50.8006 103.748H43.8853L35.5859 74.6251H43.712L47.8616 91.2542L52.2264 74.6251H58.9266L63.2053 91.2542L67.441 74.6251H75.4379L67.1816 103.748H60.2663Z" fill="#F8B2CC"/>
<path d="M106.175 84.963H115.338V91.352H98.6533V62.2289H115.338V68.6192H106.175V73.3705H115.338V79.8423H106.175V84.963Z" fill="#7FC9A1"/>
<path d="M156.574 97.358H165.349V103.748H149.054V74.6251H156.574V97.358Z" fill="#FBC88D"/>
<path d="M212.166 80.518H220.335C219.786 82.3199 218.969 83.9663 217.886 85.4533C216.802 86.9416 215.574 88.1643 214.201 89.119C212.829 90.075 211.377 90.7778 209.846 91.2286C208.315 91.6794 206.754 91.9041 205.166 91.9041C202.594 91.9041 200.123 91.3323 197.754 90.1862C195.385 89.04 193.629 87.6913 192.487 86.1363C191.346 84.5826 190.558 83.1981 190.125 81.984C189.691 80.7712 189.402 79.441 189.258 77.9959V76.7275C189.258 74.7637 189.654 72.8481 190.446 70.9807C191.239 69.1133 192.348 67.4904 193.775 66.1132C195.201 64.7361 196.887 63.653 198.832 62.8613C200.776 62.0708 202.888 61.6744 205.164 61.6744C206.547 61.6744 207.881 61.8386 209.163 62.1647C210.445 62.4908 211.504 62.8786 212.34 63.3281C213.176 63.7777 213.874 64.2051 214.436 64.6139C214.998 65.0227 215.696 65.6007 216.533 66.3479C217.368 67.0964 218.104 68.035 218.737 69.1651C219.37 70.294 219.932 71.6625 220.422 73.2668H212.325C211.545 71.9688 210.571 70.9128 209.401 70.1013C208.231 69.2899 206.811 68.8835 205.136 68.8835C203.779 68.8835 202.508 69.1837 201.325 69.7827C200.142 70.3817 199.261 71.0832 198.683 71.886C198.106 72.69 197.702 73.357 197.471 73.8881C197.24 74.4191 197.081 75.0392 196.995 75.7469V76.6867C196.995 78.2121 197.384 79.5608 198.162 80.7316C198.854 81.8765 199.841 82.8152 201.123 83.5513C202.405 84.2862 203.737 84.6542 205.121 84.6542C205.524 84.6542 205.949 84.6135 206.396 84.532C206.843 84.4504 207.391 84.2998 208.038 84.0812C208.686 83.8626 209.4 83.4327 210.178 82.7905C210.956 82.1495 211.618 81.3912 212.167 80.5167L212.166 80.518Z" fill="#CE8FB1"/>
<path d="M236.641 88.9207C236.641 86.9249 237.066 85.0043 237.915 83.1579C238.765 81.3114 239.925 79.7132 241.395 78.3596C242.865 77.0072 244.573 75.9537 246.517 75.2015C248.462 74.4493 250.473 74.0726 252.546 74.0726H254.145C256.22 74.2925 258.079 74.8199 259.721 75.656C261.363 76.4922 262.84 77.6025 264.151 78.987C265.462 80.3715 266.485 81.9277 267.22 83.6556C267.955 85.3835 268.323 87.2065 268.323 89.1258C268.323 91.0451 268.012 92.8347 267.393 94.2464C266.773 95.6581 266.176 96.7758 265.6 97.5984C265.023 98.421 264.209 99.346 263.158 100.374C262.106 101.402 260.586 102.314 258.597 103.109C256.609 103.903 254.562 104.301 252.46 104.301C249.463 104.301 246.769 103.624 244.377 102.271C241.986 100.917 240.098 99.0583 238.714 96.6919C237.332 94.3267 236.64 91.7355 236.64 88.9183L236.641 88.9207ZM244.421 89.0023C244.421 90.4535 244.789 91.7948 245.524 93.0274C246.259 94.26 247.231 95.2579 248.442 96.0249C249.653 96.7919 251.02 97.1748 252.549 97.1748C253.672 97.1748 254.732 96.9487 255.726 96.4967C256.721 96.0447 257.563 95.4494 258.255 94.7108C258.947 93.9722 259.486 93.1089 259.876 92.1233C260.264 91.1377 260.46 90.1521 260.46 89.1665C260.46 87.9352 260.229 86.8199 259.768 85.8195C259.306 84.8203 258.694 83.9928 257.93 83.3345C257.166 82.6774 256.439 82.2328 255.747 82.0006C255.055 81.7672 254.457 81.6103 253.954 81.5288C253.449 81.4473 252.953 81.4053 252.463 81.4053C251.109 81.4053 249.818 81.6992 248.595 82.2884C247.37 82.8775 246.369 83.7594 245.591 84.9364C244.812 86.1134 244.424 87.4695 244.424 89.0023H244.421Z" fill="#D2E69C"/>
<path d="M301.199 91.352L294.889 72.0601V91.352H287.8V62.2289H298.087L303.923 80.0881L309.801 62.2289H320.131V91.352H312.956V72.0601L306.516 91.352H301.199Z" fill="#85DCDB"/>
<path d="M353.347 97.358H362.511V103.748H345.826V74.6251H362.511V81.0142H353.347V85.7655H362.511V92.2373H353.347V97.358Z" fill="#7FB2D8"/>
<path d="M337.004 18.5415C333.828 18.5415 331.253 20.982 331.253 23.9919C331.253 27.0018 333.828 29.4423 337.004 29.4423C340.181 29.4423 342.756 27.0018 342.756 23.9919C342.756 20.982 340.181 18.5415 337.004 18.5415Z" fill="#F8B2CC"/>
<path d="M259.249 21.2135C257.629 21.2135 256.316 22.4572 256.316 23.9924C256.316 25.5276 257.629 26.7713 259.249 26.7713C260.869 26.7713 262.181 25.5276 262.181 23.9924C262.181 22.4572 260.869 21.2135 259.249 21.2135Z" fill="#D2E69C"/>
<path d="M18.8523 55.0244C17.2323 55.0244 15.9199 56.2681 15.9199 57.8033C15.9199 59.3385 17.2323 60.5822 18.8523 60.5822C20.4723 60.5822 21.7847 59.3385 21.7847 57.8033C21.7847 56.2681 20.4723 55.0244 18.8523 55.0244Z" fill="#FBC88D"/>
<path d="M387.378 140.11C385.758 140.11 384.445 141.354 384.445 142.889C384.445 144.424 385.758 145.668 387.378 145.668C388.998 145.668 390.31 144.424 390.31 142.889C390.31 141.354 388.998 140.11 387.378 140.11Z" fill="#7FC9A1"/>
<path d="M65.0006 142.888C63.3807 142.888 62.0682 144.132 62.0682 145.667C62.0682 147.202 63.3807 148.446 65.0006 148.446C66.6206 148.446 67.933 147.202 67.933 145.667C67.933 144.132 66.6206 142.888 65.0006 142.888Z" fill="#D2E69C"/>
<path d="M229.187 123C224.113 123 220 126.898 220 131.706C220 136.514 224.113 140.412 229.187 140.412C234.261 140.412 238.374 136.514 238.374 131.706C238.374 126.898 234.261 123 229.187 123Z" fill="#85DCDB"/>
<path d="M160.317 10.6808C157.538 10.6808 155.287 12.8151 155.287 15.447C155.287 18.079 157.539 20.2132 160.317 20.2132C163.094 20.2132 165.346 18.079 165.346 15.447C165.346 12.8151 163.094 10.6808 160.317 10.6808Z" fill="#CE8FB1"/>
<path d="M287.8 142.888C285.023 142.888 282.771 145.023 282.771 147.654C282.771 150.286 285.023 152.421 287.8 152.421C290.577 152.421 292.829 150.286 292.829 147.654C292.829 145.023 290.577 142.888 287.8 142.888Z" fill="#FBC88D"/>
<circle cx="188.92" cy="161.325" r="5.30675" fill="#7FB2D8"/>
<circle cx="385.27" cy="5.30675" r="5.30675" fill="#FBC88D"/>
<circle cx="6.3681" cy="147.528" r="6.3681" fill="#D2E69C"/>
<circle cx="350.245" cy="168.755" r="4.2454" fill="#F8B2CC"/>
<path d="M20.2875 110.94C17.2375 110.94 17.2375 115.68 20.2875 115.68C23.3375 115.68 23.3375 110.94 20.2875 110.94Z" fill="#95D8D6"/>
<path d="M30.3875 102.73C27.3375 102.73 27.3375 107.47 30.3875 107.47C33.4375 107.47 33.4375 102.73 30.3875 102.73Z" fill="#95D8D6"/>
<path d="M31.0175 114.73C27.9675 114.73 27.9675 119.46 31.0175 119.46C34.0675 119.46 34.0675 114.73 31.0175 114.73Z" fill="#95D8D6"/>
<path d="M370.717 110.94C367.667 110.94 367.667 115.68 370.717 115.68C373.767 115.68 373.767 110.94 370.717 110.94Z" fill="#95D8D6"/>
<path d="M380.807 102.73C377.757 102.73 377.757 107.47 380.807 107.47C383.857 107.47 383.857 102.73 380.807 102.73Z" fill="#95D8D6"/>
<path d="M381.447 114.73C378.397 114.73 378.397 119.46 381.447 119.46C384.497 119.46 384.497 114.73 381.447 114.73Z" fill="#95D8D6"/>
<path d="M83.6575 42.21C79.8575 42.21 79.8575 48.1 83.6575 48.1C87.4575 48.1 87.4575 42.21 83.6575 42.21Z" fill="#FFD77D"/>
<path d="M96.2274 32C92.4274 32 92.4274 37.9 96.2274 37.9C100.027 37.9 100.027 32 96.2274 32Z" fill="#FFD77D"/>
<path d="M97.0175 46.93C93.2175 46.93 93.2175 52.82 97.0175 52.82C100.817 52.82 100.817 46.93 97.0175 46.93Z" fill="#FFD77D"/>
<path d="M267.867 42.21C264.067 42.21 264.067 48.1 267.867 48.1C271.667 48.1 271.667 42.21 267.867 42.21Z" fill="#FFD77D"/>
<path d="M280.437 32C276.637 32 276.637 37.9 280.437 37.9C284.237 37.9 284.237 32 280.437 32Z" fill="#FFD77D"/>
<path d="M281.227 46.93C277.427 46.93 277.427 52.82 281.227 52.82C285.027 52.82 285.027 46.93 281.227 46.93Z" fill="#FFD77D"/>
<path d="M205.159 49.4675C205.159 49.3975 205.159 49.3175 205.159 49.2475C205.159 38.7875 196.679 30.2975 186.209 30.2975C175.739 30.2975 167.259 38.7775 167.259 49.2475C167.259 49.3175 167.259 49.3975 167.259 49.4675H205.139H205.159Z" fill="#FFD77D"/>
<path d="M184.539 18.2975V24.7375C184.539 26.4675 186.899 26.4675 186.899 24.7375V18.2975C186.899 16.5675 184.539 16.5675 184.539 18.2975Z" fill="#FFD77D"/>
<path d="M204.169 22.7875L200.139 27.8075C199.059 29.1575 200.899 30.6375 201.979 29.2875L206.009 24.2675C207.089 22.9175 205.249 21.4375 204.169 22.7875Z" fill="#FFD77D"/>
<path d="M217.049 39.8875L210.609 39.9875C208.879 40.0175 208.909 42.3775 210.649 42.3475L217.089 42.2575C218.819 42.2275 218.789 39.8675 217.049 39.8975V39.8875Z" fill="#FFD77D"/>
<path d="M163.169 39.8875L156.729 39.9875C154.999 40.0175 155.029 42.3775 156.769 42.3475L163.209 42.2575C164.939 42.2275 164.909 39.8675 163.169 39.8975V39.8875Z" fill="#FFD77D"/>
<path d="M169.439 22.7875L173.469 27.8075C174.549 29.1575 172.709 30.6375 171.629 29.2875L167.599 24.2675C166.519 22.9175 168.359 21.4375 169.439 22.7875Z" fill="#FFD77D"/>
<path d="M398.496 35.5828C397.639 35.5828 396.812 35.7007 396.023 35.9135C395.338 34.2068 393.692 33.0057 391.769 33.0057C390.777 33.0057 389.86 33.3288 389.108 33.8685C386.336 29.7254 381.655 27 376.345 27C372.667 27 369.288 28.3114 366.639 30.497C365.506 29.8204 364.189 29.4251 362.778 29.4251C358.554 29.4251 355.126 32.9069 355.126 37.1983C355.126 37.605 355.167 38.0003 355.223 38.388C352.151 39.726 350 42.8277 350 46.4387C350 51.2775 353.861 55.2002 358.625 55.2002C358.819 55.2002 359.014 55.1926 359.205 55.1774C360.75 58.0776 363.773 60.0504 367.249 60.0504C368.619 60.0504 369.917 59.7425 371.084 59.1951C371.982 61.4264 374.138 63 376.66 63C378.976 63 380.981 61.6696 381.991 59.7235C383.765 60.9702 385.913 61.7 388.229 61.7C392.775 61.7 396.678 58.8948 398.346 54.8923C398.395 54.8923 398.444 54.8923 398.492 54.8923C403.742 54.8923 408 50.5667 408 45.2338C408 39.9009 403.742 35.5752 398.492 35.5752L398.496 35.5828Z" fill="#95D8D6"/>
<path d="M137.359 117.351C136.311 117.351 135.298 117.493 134.332 117.749C133.494 115.691 131.479 114.243 129.125 114.243C127.911 114.243 126.789 114.632 125.869 115.283C122.475 110.287 116.745 107 110.247 107C105.745 107 101.609 108.581 98.3666 111.217C96.9789 110.401 95.3668 109.925 93.6402 109.925C88.4695 109.925 84.2744 114.124 84.2744 119.299C84.2744 119.789 84.3248 120.266 84.3935 120.734C80.6334 122.347 78 126.088 78 130.443C78 136.278 82.7264 141.009 88.5565 141.009C88.7947 141.009 89.0328 140.999 89.2664 140.981C91.1579 144.479 94.8584 146.858 99.1131 146.858C100.789 146.858 102.379 146.486 103.807 145.826C104.907 148.517 107.545 150.415 110.631 150.415C113.466 150.415 115.921 148.811 117.158 146.464C119.329 147.967 121.957 148.847 124.792 148.847C130.357 148.847 135.134 145.464 137.176 140.637C137.236 140.637 137.295 140.637 137.355 140.637C143.78 140.637 148.992 135.421 148.992 128.989C148.992 122.558 143.78 117.341 137.355 117.341L137.359 117.351Z" fill="#95D8D6"/>
<path d="M342.299 119.853C341.604 119.853 340.934 119.947 340.294 120.117C339.74 118.754 338.405 117.795 336.847 117.795C336.043 117.795 335.301 118.053 334.691 118.484C332.444 115.176 328.651 113 324.349 113C321.368 113 318.63 114.047 316.484 115.792C315.565 115.252 314.498 114.936 313.354 114.936C309.931 114.936 307.154 117.716 307.154 121.142C307.154 121.467 307.187 121.783 307.233 122.092C304.743 123.161 303 125.637 303 128.52C303 132.383 306.129 135.515 309.989 135.515C310.147 135.515 310.304 135.509 310.459 135.497C311.711 137.813 314.161 139.388 316.978 139.388C318.088 139.388 319.14 139.142 320.086 138.705C320.813 140.486 322.56 141.743 324.603 141.743C326.48 141.743 328.105 140.68 328.924 139.127C330.361 140.122 332.102 140.705 333.979 140.705C337.663 140.705 340.825 138.465 342.177 135.269C342.217 135.269 342.256 135.269 342.296 135.269C346.55 135.269 350 131.816 350 127.558C350 123.3 346.55 119.847 342.296 119.847L342.299 119.853Z" fill="#95D8D6"/>
<path d="M62.2986 19.8526C61.6042 19.8526 60.9341 19.9467 60.2944 20.1166C59.7395 18.754 58.4054 17.795 56.8469 17.795C56.0434 17.795 55.3006 18.0529 54.6911 18.4839C52.4444 15.176 48.6513 13 44.3488 13C41.3682 13 38.6303 14.047 36.4836 15.792C35.5649 15.2518 34.4976 14.9362 33.3545 14.9362C29.9313 14.9362 27.1539 17.7161 27.1539 21.1424C27.1539 21.4671 27.1873 21.7827 27.2328 22.0923C24.7434 23.1605 23 25.6369 23 28.52C23 32.3833 26.1291 35.5152 29.9889 35.5152C30.1466 35.5152 30.3042 35.5091 30.4589 35.497C31.7111 37.8126 34.161 39.3876 36.9778 39.3876C38.0875 39.3876 39.1397 39.1418 40.0857 38.7048C40.8134 40.4862 42.5598 41.7426 44.6034 41.7426C46.4803 41.7426 48.1055 40.6804 48.9241 39.1266C50.3613 40.122 52.1017 40.7047 53.9786 40.7047C57.6625 40.7047 60.825 38.465 62.1773 35.2694C62.2167 35.2694 62.2561 35.2694 62.2955 35.2694C66.5495 35.2694 70 31.8158 70 27.558C70 23.3001 66.5495 19.8465 62.2955 19.8465L62.2986 19.8526Z" fill="#95D8D6"/>
</svg>
